<svg width="173" height="306" viewBox="0 0 173 306" fill="none" xmlns="http://www.w3.org/2000/svg">
<path d="M86.2786 305.704C71.6734 305.704 60.3905 291.229 52.3436 279.816C51.4807 282.793 49.1723 288.273 45.4617 287.949C41.7511 287.626 40.4783 282.923 40.4783 271.791C40.4783 268.49 40.694 264.909 43.3475 264.068C45.5049 263.42 47.2092 264.823 49.8195 268.167C51.9769 254.403 55.9032 229.917 57.586 218.052C58.1253 214.319 58.1684 209.422 55.2992 207.891C42.9245 200.48 32.0503 190.813 23.2411 179.392C10.4697 173.524 1.7756 166.815 0.265458 161.486C-0.157594 160.055 -0.0729929 158.521 0.504935 157.145C1.08286 155.769 2.1186 154.635 3.43675 153.936C8.03188 151.066 12.0661 156.546 18.5381 165.628C20.6955 168.584 23.1117 171.928 25.9162 175.466C44.985 183.771 65.5242 188.172 86.3217 188.41C107.119 188.166 127.657 183.765 146.727 175.466C149.51 171.928 151.948 168.584 154.084 165.628C160.707 156.546 164.676 151.088 169.185 153.936C170.503 154.635 171.539 155.769 172.117 157.145C172.695 158.521 172.779 160.055 172.356 161.486C170.846 166.815 162.152 173.524 149.381 179.392C140.586 190.817 129.727 200.491 117.366 207.912C114.497 209.552 114.54 214.384 115.079 218.073C116.762 229.917 120.602 254.424 122.845 268.188C125.391 264.844 127.16 263.442 129.318 264.089C131.971 264.931 132.187 268.404 132.187 271.813C132.187 282.944 130.741 287.626 127.203 287.971C123.665 288.316 121.206 282.815 120.321 279.838C112.275 291.185 100.927 305.704 86.2786 305.704ZM53.5733 273.495L53.7675 273.776C61.275 284.562 72.601 301.131 86.3217 301.131C100.042 301.131 111.368 284.713 118.876 273.776L119.07 273.495C117.042 261.328 112.426 232.031 110.441 218.72C109.384 211.256 110.915 206.273 114.993 203.921C124.43 198.422 132.941 191.469 140.212 183.318C122.931 189.648 104.682 192.933 86.2786 193.027C67.8684 192.898 49.6199 189.577 32.3451 183.211C39.5649 191.393 48.0327 198.383 57.435 203.921C61.4907 206.273 63.0225 211.256 61.9654 218.72C60.2179 232.053 55.6012 261.328 53.5733 273.495ZM123.903 274.574C124.14 276.019 124.312 277.055 124.42 277.616C124.822 279.444 125.553 281.184 126.578 282.75C127.432 279.171 127.774 275.488 127.592 271.813C127.592 270.95 127.592 270.259 127.592 269.655C126.47 270.928 125.111 272.762 123.903 274.574ZM45.2891 269.72C45.2891 270.259 45.2891 270.95 45.2891 271.877C45.1061 275.552 45.4402 279.234 46.2815 282.815C47.3154 281.253 48.0472 279.512 48.4388 277.681C48.5467 277.12 48.7193 276.084 48.9566 274.639C47.4465 272.762 46.1736 270.928 45.2891 269.72ZM166.79 157.819C165.323 157.819 161.117 163.687 157.73 168.325C157.147 169.145 156.543 169.986 155.896 170.849C162.756 166.944 167.157 163.126 167.977 160.235C168.257 159.588 168.257 158.725 166.79 157.819ZM5.80982 157.819C4.38598 158.725 4.47227 159.501 4.66643 160.235C5.50779 163.126 9.88719 166.944 16.7475 170.849C16.1003 169.986 15.4963 169.145 14.9138 168.325C11.5268 163.687 7.31996 157.883 5.80982 157.819V157.819Z" fill="#20A5CF" fill-opacity="0.77"/>
<path d="M86.2785 172.791C74.5524 171.759 62.9159 169.885 51.4591 167.181C29.8857 162.176 18.9048 156.395 17.8909 149.534C16.8122 142.199 26.5202 135.62 48.5898 128.846C43.3259 117.39 40.133 95.4715 36.4224 66.6494C35.5379 59.6165 34.5024 51.5481 33.3806 44.2994C26.6281 48.8082 22.3134 49.8653 19.552 48.161C16.1003 46.0037 16.0571 40.5888 19.4441 30.665C22.5076 21.5826 25.1395 18.023 28.505 18.3682C31.8704 18.7134 34.5024 23.9557 36.6597 36.1878C37.5658 35.4759 38.515 34.6992 39.529 33.8579C48.784 26.2209 59.5491 15.7362 67.898 7.47362C72.7994 2.68253 79.3813 0 86.2354 0C93.0895 0 99.6713 2.68253 104.573 7.47362C112.9 15.7362 123.665 26.2209 132.92 33.8579C133.934 34.6992 134.883 35.4759 135.789 36.1878C137.947 23.9557 140.277 18.7349 143.944 18.3682C147.612 18.0014 150.093 21.5179 153.156 30.665C156.543 40.5888 156.5 46.0037 153.156 48.161C150.395 49.8653 146.08 48.8082 139.349 44.2994C138.206 51.5696 137.192 59.6165 136.286 66.6494C132.575 95.4715 129.382 117.39 124.118 128.846C146.123 135.62 155.896 142.199 154.817 149.534C153.803 156.395 142.822 162.176 121.249 167.181C109.743 169.893 98.0555 171.768 86.2785 172.791V172.791ZM50.9197 132.944C23.5647 141.229 22.2271 147.226 22.4644 148.801C22.7017 150.376 25.6141 156.395 52.5377 162.651C63.6435 165.279 74.9171 167.139 86.2785 168.217C97.6529 167.162 108.941 165.324 120.062 162.716C147.029 156.459 149.92 150.527 150.179 148.801C150.438 147.075 149.079 141.164 121.724 132.88C120.461 134.986 118.498 136.581 116.179 137.389C112.663 138.381 109.017 136.59 105.393 132.06C104.687 131.429 104.231 130.566 104.108 129.628C103.985 128.689 104.204 127.738 104.724 126.947C106.881 123.841 113.763 125.286 119.717 127.335C125.348 115.19 129.037 86.346 131.669 66.0022C132.942 56.0138 134.042 47.8374 135.099 41.2576C123.291 31.7681 112.067 21.5741 101.488 10.7312C97.4503 6.74586 92.0055 4.51124 86.3325 4.51124C80.6594 4.51124 75.2146 6.74586 71.1771 10.7312C60.6071 21.5956 49.39 31.8113 37.5874 41.3223C38.6445 47.9022 39.7447 56.0785 41.0175 66.067C43.6495 86.497 47.3385 115.254 52.9692 127.4C58.9235 125.351 65.7406 123.927 68.0706 127.012C68.5905 127.803 68.809 128.754 68.6862 129.693C68.5635 130.631 68.1076 131.494 67.4018 132.125C63.7343 136.655 60.0884 138.446 56.6151 137.453C54.2445 136.669 52.2274 135.072 50.9197 132.944ZM109.362 129.795C110.98 131.672 113.116 133.549 114.928 133.031C115.833 132.728 116.628 132.165 117.215 131.413C114.693 130.483 112.046 129.938 109.362 129.795V129.795ZM55.4286 131.413C56.0152 132.165 56.8106 132.728 57.7153 133.031C59.5275 133.549 61.6633 131.672 63.2813 129.795C60.5974 129.938 57.9503 130.483 55.4286 131.413V131.413ZM140.039 39.2728C148.669 45.3781 150.524 44.321 150.61 44.2563C150.697 44.1915 152.423 42.7677 148.82 32.132C146.662 25.4658 145.088 23.5027 144.505 23.0712C142.973 24.6029 141.442 31.0533 140.039 39.2728ZM28.0304 23.0712C27.4694 23.5889 26.0025 25.4658 23.7157 32.132C20.1129 42.7677 21.9035 44.2563 21.9251 44.2563C21.9467 44.2563 23.9314 45.3781 32.496 39.2728C31.2016 31.0533 29.6699 24.6029 28.0304 23.0712Z" fill="#20A5CF" fill-opacity="0.77"/>
</svg>
