<svg width="600" height="788" viewBox="0 0 600 788" fill="none" xmlns="http://www.w3.org/2000/svg">
<path d="M261.099 407.836L269.776 408.008L269.466 407.26C266.774 407.699 263.945 407.836 261.099 407.836Z" fill="#142768"/>
<path d="M134.462 786.974H445.725C470.312 786.974 388.89 689.293 391 655C396.138 571.5 476 580.5 490.069 469.334C490.069 444.042 470.313 423.478 445.725 423.478H47.0184C24.2168 423.478 5.37316 441.272 3.13431 464.13C2.96946 464.317 2.96945 464.468 2.96945 464.628C1.59862 468.705 1 473.111 1 478.025C1 560.149 88.9148 614.369 188.144 618.614C188.604 618.773 189.202 618.924 189.671 618.924C218.763 621.845 109.885 786.974 134.466 786.974L134.462 786.974Z" fill="#000AFF"/>
<path d="M362.002 32.1668V43.6122H369.351V386.888C369.351 403.631 389.083 417 413.367 417H547.895C572.181 417 591.666 403.63 591.666 386.888L591.651 43.6122H599V32.1668C599 14.918 578.017 1 552.204 1H408.785C383.014 1.01013 362 14.9066 362 32.1668H362.002Z" fill="#000AFF"/>
<path d="M30.2359 413H354.485C364.247 409 364.76 389 354.485 382.944C250.572 381.274 40.2448 380.64 30.2359 391.46C20.2269 402.28 23.8065 410.328 30.2359 413Z" fill="#000AFF"/>
<path d="M261.099 407.836V407.336L261.089 408.336L261.099 407.836ZM269.776 408.008L269.766 408.508L270.53 408.523L270.238 407.817L269.776 408.008ZM269.466 407.26L269.928 407.069L269.777 406.703L269.386 406.767L269.466 407.26ZM134.462 786.974V786.474L134.384 787.468L134.462 786.974ZM391 655L391.499 655.031L391 655ZM490.069 469.334L490.565 469.397L490.569 469.366V469.334H490.069ZM3.13431 464.13L3.51017 464.459L3.61625 464.338L3.63193 464.178L3.13431 464.13ZM2.96945 464.628L3.44338 464.787L3.46945 464.709V464.628H2.96945ZM188.144 618.614L188.308 618.141L188.239 618.117L188.165 618.114L188.144 618.614ZM189.671 618.924L189.721 618.426L189.696 618.424H189.671V618.924ZM134.466 786.974V787.474L134.544 786.481L134.466 786.974ZM362.002 32.1668H362.502V31.6668H362.002V32.1668ZM362.002 43.6122H361.502V44.1122H362.002V43.6122ZM369.351 43.6122H369.851V43.1122H369.351V43.6122ZM591.666 386.888H592.166V386.888L591.666 386.888ZM591.651 43.6122V43.1122H591.151V43.6123L591.651 43.6122ZM599 43.6122V44.1122H599.5V43.6122H599ZM408.785 1V0.5L408.784 0.5L408.785 1ZM362 32.1668H361.5V32.6668H362V32.1668ZM354.485 413V413.5H354.583L354.674 413.463L354.485 413ZM30.2359 413L30.044 413.462L30.1361 413.5H30.2359V413ZM354.485 382.944L354.739 382.513L354.625 382.446L354.493 382.444L354.485 382.944ZM261.089 408.336L269.766 408.508L269.786 407.508L261.109 407.336L261.089 408.336ZM270.238 407.817L269.928 407.069L269.004 407.451L269.314 408.199L270.238 407.817ZM269.386 406.767C266.731 407.199 263.931 407.336 261.099 407.336V408.336C263.96 408.336 266.818 408.198 269.546 407.754L269.386 406.767ZM134.462 787.474H445.725V786.474H134.462V787.474ZM445.725 787.474C447.34 787.474 448.606 787.072 449.485 786.229C450.363 785.387 450.776 784.179 450.845 782.734C450.982 779.871 449.782 775.828 447.71 770.979C443.551 761.248 435.724 747.934 427.221 733.592C418.709 719.233 409.508 703.825 402.566 689.866C399.095 682.886 396.195 676.281 394.229 670.359C392.26 664.43 391.241 659.224 391.499 655.031L390.501 654.969C390.231 659.35 391.295 664.698 393.28 670.674C395.266 676.658 398.189 683.31 401.671 690.311C408.633 704.311 417.855 719.754 426.361 734.102C434.877 748.466 442.663 761.716 446.79 771.372C448.861 776.217 449.971 780.073 449.846 782.686C449.785 783.978 449.424 784.903 448.793 785.508C448.162 786.112 447.183 786.474 445.725 786.474V787.474ZM391.499 655.031C394.055 613.494 415.159 594.992 437.537 572.898C448.725 561.851 460.226 549.907 469.806 533.755C479.39 517.599 487.039 497.252 490.565 469.397L489.573 469.272C486.063 497 478.455 517.215 468.946 533.245C459.435 549.281 448.012 561.15 436.834 572.186C414.479 594.258 393.083 613.006 390.501 654.969L391.499 655.031ZM490.569 469.334C490.569 443.782 470.606 422.978 445.725 422.978V423.978C470.02 423.978 489.569 444.301 489.569 469.334H490.569ZM445.725 422.978H47.0184V423.978H445.725V422.978ZM47.0184 422.978C23.9475 422.978 4.89942 440.979 2.63669 464.081L3.63193 464.178C5.84689 441.565 24.4861 423.978 47.0184 423.978V422.978ZM2.75845 463.8C2.62851 463.948 2.54716 464.102 2.50549 464.266C2.46714 464.417 2.46945 464.555 2.46945 464.628H3.46945C3.46945 464.54 3.47177 464.524 3.47464 464.512C3.47523 464.51 3.4761 464.507 3.47914 464.501C3.48251 464.495 3.49095 464.481 3.51017 464.459L2.75845 463.8ZM2.49552 464.468C1.10359 468.608 0.5 473.07 0.5 478.025H1.5C1.5 473.152 2.09365 468.802 3.44338 464.787L2.49552 464.468ZM0.5 478.025C0.5 519.287 22.5915 553.511 57.072 577.932C91.5467 602.348 138.43 616.987 188.122 619.113L188.165 618.114C138.628 615.995 91.94 601.401 57.65 577.116C23.3659 552.834 1.5 518.887 1.5 478.025H0.5ZM187.98 619.086C188.459 619.252 189.12 619.424 189.671 619.424V618.424C189.285 618.424 188.748 618.294 188.308 618.141L187.98 619.086ZM189.621 619.421C191.294 619.589 192.425 620.325 193.144 621.546C193.881 622.799 194.214 624.612 194.143 626.968C194.001 631.679 192.255 638.305 189.391 646.245C183.67 662.105 173.57 682.994 163.311 703.824C153.061 724.637 142.654 745.391 136.349 760.939C133.2 768.705 131.054 775.22 130.478 779.811C130.191 782.097 130.281 783.988 130.901 785.329C131.216 786.011 131.672 786.557 132.285 786.928C132.895 787.298 133.628 787.474 134.466 787.474V786.474C133.768 786.474 133.224 786.328 132.803 786.073C132.384 785.819 132.053 785.438 131.808 784.909C131.309 783.83 131.189 782.17 131.47 779.936C132.029 775.485 134.129 769.076 137.276 761.315C143.563 745.81 153.948 725.1 164.208 704.266C174.461 683.448 184.588 662.507 190.332 646.584C193.2 638.632 194.995 631.878 195.143 626.999C195.217 624.56 194.882 622.526 194.006 621.039C193.111 619.52 191.684 618.623 189.721 618.426L189.621 619.421ZM134.544 786.481L134.54 786.48L134.384 787.468L134.388 787.468L134.544 786.481ZM361.502 32.1668V43.6122H362.502V32.1668H361.502ZM362.002 44.1122H369.351V43.1122H362.002V44.1122ZM368.851 43.6122V386.888H369.851V43.6122H368.851ZM368.851 386.888C368.851 395.473 373.91 403.138 381.97 408.636C390.033 414.135 401.138 417.5 413.367 417.5V416.5C401.312 416.5 390.409 413.181 382.534 407.81C374.657 402.437 369.851 395.047 369.851 386.888H368.851ZM413.367 417.5H547.895V416.5H413.367V417.5ZM547.895 417.5C560.125 417.5 571.17 414.134 579.171 408.634C587.171 403.135 592.166 395.47 592.166 386.888H591.166C591.166 395.049 586.418 402.439 578.605 407.81C570.792 413.181 559.951 416.5 547.895 416.5V417.5ZM592.166 386.888L592.151 43.6122L591.151 43.6123L591.166 386.888L592.166 386.888ZM591.651 44.1122H599V43.1122H591.651V44.1122ZM599.5 43.6122V32.1668H598.5V43.6122H599.5ZM599.5 32.1668C599.5 23.3229 594.121 15.3939 585.559 9.69878C576.994 4.0014 565.195 0.5 552.204 0.5V1.5C565.026 1.5 576.625 4.95758 585.005 10.5314C593.388 16.1075 598.5 23.7619 598.5 32.1668H599.5ZM552.204 0.5H408.785V1.5H552.204V0.5ZM408.784 0.5C395.814 0.505097 384.019 4.00364 375.452 9.6982C366.887 15.3905 361.5 23.3169 361.5 32.1668H362.5C362.5 23.7565 367.62 16.1046 376.005 10.531C384.387 4.95977 395.984 1.50503 408.785 1.5L408.784 0.5ZM362 32.6668H362.002V31.6668H362V32.6668ZM354.485 412.5H30.2359V413.5H354.485V412.5ZM30.4278 412.538C27.3453 411.257 24.9896 408.711 24.5679 405.226C24.1448 401.728 25.6525 397.151 30.6029 391.799L29.8688 391.12C24.8102 396.589 23.1033 401.446 23.5751 405.346C24.0484 409.257 26.6972 412.071 30.044 413.462L30.4278 412.538ZM30.6029 391.799C30.8497 391.533 31.2883 391.239 31.9588 390.934C32.6217 390.632 33.4759 390.335 34.5193 390.045C36.6058 389.463 39.4057 388.92 42.8527 388.414C49.7443 387.402 59.171 386.547 70.5411 385.829C93.2782 384.394 123.745 383.511 157.154 383.018C223.969 382.033 302.523 382.609 354.477 383.444L354.493 382.444C302.534 381.609 223.968 381.033 157.139 382.018C123.726 382.511 93.2396 383.394 70.4781 384.831C59.0988 385.549 49.6398 386.406 42.7074 387.424C39.2425 387.933 36.3958 388.484 34.251 389.081C33.1787 389.38 32.2711 389.693 31.5446 390.024C30.8258 390.351 30.2476 390.711 29.8688 391.12L30.6029 391.799ZM354.231 383.375C359.157 386.278 361.562 392.581 361.499 398.738C361.435 404.912 358.901 410.65 354.295 412.537L354.674 413.463C359.83 411.35 362.434 405.088 362.499 398.748C362.564 392.391 360.088 385.666 354.739 382.513L354.231 383.375Z" fill="#000AFF"/>
</svg>
