<svg id="Layer_1" data-name="Layer 1" xmlns="http://www.w3.org/2000/svg" viewBox="0 0 600.25 600.25"><defs><style>.cls-1{fill:#000aff;stroke:#ebebeb;stroke-miterlimit:10;stroke-width:0.25px;}.cls-2{fill:#f0f0f0;}</style></defs><circle class="cls-1" cx="300.13" cy="300.13" r="300"/><path class="cls-2" d="M200.72,520.26H375.9c13.84,0-32-55-30.8-74.28,2.89-47,47.84-41.93,55.76-104.49,0-14.24-11.12-25.81-25-25.81H151.5c-12.83,0-23.43,10-24.69,22.88a.34.34,0,0,0-.1.28,23.41,23.41,0,0,0-1.1,7.54c0,46.22,49.47,76.73,105.32,79.12a2.94,2.94,0,0,0,.86.18c16.37,1.64-44.9,94.58-31.07,94.58Z"/><path class="cls-2" d="M331.26,85.53V92h4.14v193.2c0,9.43,11.1,16.95,24.77,16.95h75.71c13.67,0,24.64-7.52,24.64-16.95V92h4.13V85.53c0-9.71-11.8-17.54-26.33-17.54H357.59c-14.5,0-26.33,7.83-26.33,17.54Z"/><path class="cls-2" d="M135.86,302.35h182.5c5.49-2.25,5.78-13.51,0-16.92-58.49-.94-176.86-1.29-182.5,4.79S132.25,300.84,135.86,302.35Z"/></svg>