<svg xmlns="http://www.w3.org/2000/svg" xmlns:xlink="http://www.w3.org/1999/xlink" viewBox="0 0 3832.43 2182.1"><defs><style>.cls-1,.cls-2,.cls-24,.cls-54,.cls-55,.cls-57,.cls-62,.cls-67,.cls-73,.cls-75{fill:#03f;}.cls-1,.cls-29,.cls-30,.cls-31,.cls-49,.cls-5,.cls-55,.cls-56,.cls-62,.cls-66,.cls-67,.cls-73,.cls-74,.cls-85{stroke:#03f;}.cls-1,.cls-14,.cls-18,.cls-23,.cls-26,.cls-27,.cls-28,.cls-29,.cls-30,.cls-31,.cls-38,.cls-40,.cls-41,.cls-49,.cls-5,.cls-55,.cls-56,.cls-6,.cls-62,.cls-66,.cls-67,.cls-73,.cls-74,.cls-76,.cls-84,.cls-85,.cls-86,.cls-87{stroke-miterlimit:10;}.cls-1{stroke-width:0.75px;}.cls-3{fill:#ececec;}.cls-32,.cls-4{fill:#e7f159;}.cls-17,.cls-42,.cls-5,.cls-50,.cls-56,.cls-63,.cls-66,.cls-68,.cls-74,.cls-77,.cls-84,.cls-86{fill:#f5f5f5;}.cls-6{filter:url(#filter);}.cls-14,.cls-6,.cls-86{font-size:46px;}.cls-14,.cls-18,.cls-23,.cls-26,.cls-27,.cls-28,.cls-29,.cls-30,.cls-31,.cls-38,.cls-40,.cls-41,.cls-49,.cls-6,.cls-76,.cls-85,.cls-87{fill:none;}.cls-14,.cls-18,.cls-23,.cls-6{stroke:#f5f5f5;}.cls-14,.cls-6,.cls-87{stroke-width:2px;}.cls-14,.cls-18,.cls-23,.cls-6,.cls-86{font-family:ColomboSansFont-Regular, Colombo Sans Font;}.cls-7{letter-spacing:-0.02em;}.cls-8{letter-spacing:-0.05em;}.cls-9{letter-spacing:-0.15em;}.cls-10{letter-spacing:-0.02em;}.cls-11{letter-spacing:-0.06em;}.cls-12{letter-spacing:-0.01em;}.cls-13{letter-spacing:0em;}.cls-14{filter:url(#filter-2);}.cls-15,.cls-37,.cls-61{fill:#fff;}.cls-16,.cls-86{opacity:0.35;}.cls-18{filter:url(#filter-3);}.cls-18,.cls-23{font-size:30px;}.cls-19{letter-spacing:-0.02em;}.cls-20{letter-spacing:-0.15em;}.cls-21{letter-spacing:-0.02em;}.cls-22{letter-spacing:-0.07em;}.cls-23{filter:url(#filter-4);}.cls-24,.cls-32{font-size:28px;font-family:Montserrat-Medium, Montserrat;font-weight:500;}.cls-25{letter-spacing:-0.01em;}.cls-26,.cls-27,.cls-28{stroke:#000;stroke-width:11px;}.cls-27{stroke-dasharray:15.57 5.84 15.57 5.84;}.cls-28{stroke-dasharray:15.57 5.84 15.57 5.84 15.57 5.84;}.cls-29,.cls-30,.cls-31,.cls-38,.cls-40,.cls-41{stroke-width:3px;}.cls-30{stroke-dasharray:20.37 3.39 20.37 3.39;}.cls-31{stroke-dasharray:20.37 3.39 20.37 3.39 20.37 3.39;}.cls-33{letter-spacing:0em;}.cls-34{letter-spacing:0em;}.cls-35{letter-spacing:-0.02em;}.cls-36{opacity:0.5;}.cls-37,.cls-39{opacity:0.75;}.cls-38{stroke:#0c0e1d;}.cls-40{stroke:#1d1d1b;}.cls-41,.cls-76,.cls-84,.cls-86,.cls-87{stroke:#fff;}.cls-42,.cls-68,.cls-75{font-size:15px;}.cls-42,.cls-77{font-family:Montserrat-SemiBold, Montserrat;font-weight:600;}.cls-43{letter-spacing:0em;}.cls-44{letter-spacing:-0.02em;}.cls-45{letter-spacing:-0.01em;}.cls-46{letter-spacing:0em;}.cls-47{letter-spacing:-0.02em;}.cls-48{fill:#c51380;}.cls-49{stroke-width:9px;}.cls-50,.cls-54{font-size:19px;font-family:MyriadPro-Regular, Myriad Pro;}.cls-51{letter-spacing:-0.02em;}.cls-52{letter-spacing:-0.02em;}.cls-53{letter-spacing:0.03em;}.cls-55,.cls-56,.cls-62,.cls-66,.cls-67,.cls-73,.cls-74{stroke-width:0.25px;}.cls-55{filter:url(#filter-5);}.cls-56{filter:url(#filter-6);}.cls-57,.cls-63{font-size:16px;}.cls-57{font-family:Montserrat-ExtraLight, Montserrat;font-weight:200;}.cls-58{letter-spacing:-0.02em;}.cls-59{letter-spacing:0em;}.cls-60{letter-spacing:0em;}.cls-61{filter:url(#filter-7);}.cls-62{filter:url(#filter-8);}.cls-63,.cls-68,.cls-75{font-family:Montserrat-Regular, Montserrat;}.cls-64{letter-spacing:0em;}.cls-65{letter-spacing:-0.01em;}.cls-66{filter:url(#filter-9);}.cls-67{filter:url(#filter-10);}.cls-69{letter-spacing:-0.01em;}.cls-70{letter-spacing:-0.03em;}.cls-71{letter-spacing:-0.07em;}.cls-72{letter-spacing:0em;}.cls-73{filter:url(#filter-11);}.cls-74{filter:url(#filter-12);}.cls-77{font-size:8.81px;}.cls-78{letter-spacing:0em;}.cls-79{letter-spacing:-0.01em;}.cls-80{letter-spacing:-0.01em;}.cls-81{letter-spacing:-0.02em;}.cls-82{letter-spacing:0em;}.cls-83{letter-spacing:0em;}.cls-84{opacity:0.25;}</style><filter id="filter" x="962.73" y="284.88" width="240.24" height="54.24" filterUnits="userSpaceOnUse"><feOffset dx="1.42" dy="1.42" input="SourceAlpha"/><feGaussianBlur stdDeviation="0.57" result="blur"/><feFlood flood-color="#64c1c2"/><feComposite operator="in" in2="blur"/><feComposite in="SourceGraphic"/></filter><filter id="filter-2" x="962.73" y="1153.68" width="240.24" height="54.24" filterUnits="userSpaceOnUse"><feOffset dx="1.42" dy="1.42" input="SourceAlpha"/><feGaussianBlur stdDeviation="0.57" result="blur-2"/><feFlood flood-color="#64c1c2"/><feComposite operator="in" in2="blur-2"/><feComposite in="SourceGraphic"/></filter><filter id="filter-3" x="1034.97" y="677.04" width="95.76" height="36.48" filterUnits="userSpaceOnUse"><feOffset dx="1.42" dy="1.42" input="SourceAlpha"/><feGaussianBlur stdDeviation="0.57" result="blur-3"/><feFlood flood-color="#fbcb09"/><feComposite operator="in" in2="blur-3"/><feComposite in="SourceGraphic"/></filter><filter id="filter-4" x="976.65" y="935.04" width="95.52" height="36.24" filterUnits="userSpaceOnUse"><feOffset dx="1.42" dy="1.42" input="SourceAlpha"/><feGaussianBlur stdDeviation="0.57" result="blur-4"/><feFlood flood-color="#fbcb09"/><feComposite operator="in" in2="blur-4"/><feComposite in="SourceGraphic"/></filter><filter id="filter-5" x="2552.95" y="886.3" width="149.04" height="120.24" filterUnits="userSpaceOnUse"><feOffset dx="2.83" dy="2.83" input="SourceAlpha"/><feGaussianBlur stdDeviation="1.13" result="blur-5"/><feFlood flood-color="#030d2d"/><feComposite operator="in" in2="blur-5"/><feComposite in="SourceGraphic"/></filter><filter id="filter-6" x="2552.95" y="999.1" width="149.04" height="36.48" filterUnits="userSpaceOnUse"><feOffset dx="2.83" dy="2.83" input="SourceAlpha"/><feGaussianBlur stdDeviation="1.13" result="blur-6"/><feFlood flood-color="#030d2d"/><feComposite operator="in" in2="blur-6"/><feComposite in="SourceGraphic"/></filter><filter id="filter-7" x="2750.71" y="886.06" width="149.04" height="120" filterUnits="userSpaceOnUse"><feOffset dx="2.83" dy="2.83" input="SourceAlpha"/><feGaussianBlur stdDeviation="1.13" result="blur-7"/><feFlood flood-color="#030d2d"/><feComposite operator="in" in2="blur-7"/><feComposite in="SourceGraphic"/></filter><filter id="filter-8" x="2750.47" y="998.62" width="149.28" height="36.48" filterUnits="userSpaceOnUse"><feOffset dx="2.83" dy="2.83" input="SourceAlpha"/><feGaussianBlur stdDeviation="1.13" result="blur-8"/><feFlood flood-color="#030d2d"/><feComposite operator="in" in2="blur-8"/><feComposite in="SourceGraphic"/></filter><filter id="filter-9" x="2750.71" y="1051.29" width="149.04" height="120" filterUnits="userSpaceOnUse"><feOffset dx="2.83" dy="2.83" input="SourceAlpha"/><feGaussianBlur stdDeviation="1.13" result="blur-9"/><feFlood flood-color="#030d2d"/><feComposite operator="in" in2="blur-9"/><feComposite in="SourceGraphic"/></filter><filter id="filter-10" x="2750.47" y="1163.85" width="149.28" height="36.48" filterUnits="userSpaceOnUse"><feOffset dx="2.83" dy="2.83" input="SourceAlpha"/><feGaussianBlur stdDeviation="1.13" result="blur-10"/><feFlood flood-color="#030d2d"/><feComposite operator="in" in2="blur-10"/><feComposite in="SourceGraphic"/></filter><filter id="filter-11" x="2551.03" y="1051.18" width="149.28" height="120.24" filterUnits="userSpaceOnUse"><feOffset dx="2.83" dy="2.83" input="SourceAlpha"/><feGaussianBlur stdDeviation="1.13" result="blur-11"/><feFlood flood-color="#030d2d"/><feComposite operator="in" in2="blur-11"/><feComposite in="SourceGraphic"/></filter><filter id="filter-12" x="2551.03" y="1163.98" width="149.28" height="36.48" filterUnits="userSpaceOnUse"><feOffset dx="2.83" dy="2.83" input="SourceAlpha"/><feGaussianBlur stdDeviation="1.13" result="blur-12"/><feFlood flood-color="#030d2d"/><feComposite operator="in" in2="blur-12"/><feComposite in="SourceGraphic"/></filter><image id="image" width="1370" height="2712" xlink:href="../../../../Downloads/Bezel-iPhone-12/PNG/iPhone%2012%20-%20White%20-%20Portrait.png"/></defs><g id="Layer_4" data-name="Layer 4"><rect class="cls-1" x="939.09" y="1079.38" width="284.52" height="586.77" rx="38.27"/><use transform="translate(926.15 1066.21) scale(0.23)" xlink:href="#image"/><rect class="cls-2" x="936.92" y="181.39" width="284.52" height="586.77" rx="38.27"/><use transform="translate(926.15 168.22) scale(0.23)" xlink:href="#image"/><circle class="cls-3" cx="1081.35" cy="498.34" r="98.34"/><circle class="cls-4" cx="1081.35" cy="1402.2" r="111.63"/><circle class="cls-4" cx="1396.84" cy="1472.78" r="78.88"/><rect class="cls-2" x="1392.38" y="1213.26" width="384.76" height="209.01"/></g><g id="text"><path class="cls-5" d="M1736.09,923.08h125.74a5.67,5.67,0,0,1,5.67,5.67v125.74a8,8,0,0,1-8,8H1736.09a8,8,0,0,1-8-8V931.07A8,8,0,0,1,1736.09,923.08Z"/><text class="cls-6" transform="translate(964.14 325.38)">S<tspan class="cls-7" x="28.8" y="0">P</tspan><tspan class="cls-8" x="55.38" y="0">O</tspan><tspan class="cls-9" x="87.81" y="0">T</tspan><tspan class="cls-10" x="108.42" y="0">A</tspan><tspan class="cls-11" x="144.39" y="0">L</tspan><tspan class="cls-12" x="165.19" y="0">O</tspan><tspan class="cls-13" x="199.46" y="0">O</tspan></text><text class="cls-14" transform="translate(964.14 1194.18)">S<tspan class="cls-7" x="28.8" y="0">P</tspan><tspan class="cls-8" x="55.38" y="0">O</tspan><tspan class="cls-9" x="87.81" y="0">T</tspan><tspan class="cls-10" x="108.42" y="0">A</tspan><tspan class="cls-11" x="144.39" y="0">L</tspan><tspan class="cls-12" x="165.19" y="0">O</tspan><tspan class="cls-13" x="199.46" y="0">O</tspan></text><path class="cls-15" d="M1633.61,1383.93c.25-.53.5-1,.74-1.58,4.77-10.38,3.28-24.31,3.21-25a17.56,17.56,0,0,0-34.7-3.71,17.55,17.55,0,1,0-33.43,10.31h-9.33v-23.6h-12.72v29.14l-9.83-29.14h-15l-11.53,34.2h13.42l1.43-4h8.45l1.34,4h35.21v-7.8a17.53,17.53,0,0,0,32-5.5,17.54,17.54,0,0,0,32.93,3.83c-.14,4.85-.85,11.2-3.26,16.44-.23.51-.48,1-.73,1.54-2.71,5.64-5.78,12,2.33,23.93l1.65-1.13C1628.33,1394.93,1631,1389.33,1633.61,1383.93Zm-96.51-11.38-1.34-4h-11.32l-1.43,4h-9.21l10.18-30.2h12.13l10.19,30.2Zm31.76,0h-19.48v-30.2h8.72V1366h10.76Zm16.87.46a15.56,15.56,0,1,1,15.56-15.56A15.58,15.58,0,0,1,1585.73,1373Zm34.27,0a15.56,15.56,0,1,1,15.56-15.56A15.58,15.58,0,0,1,1620,1373Z"/><path class="cls-15" d="M1446,1350.42h-3.44v5.45H1446a2.69,2.69,0,0,0,2.75-2.7A2.75,2.75,0,0,0,1446,1350.42Zm0,3.45h-1.44v-1.45H1446a.76.76,0,0,1,.75.75A.71.71,0,0,1,1446,1353.87Z"/><path class="cls-15" d="M1475.93,1350.93a6.52,6.52,0,1,0,6.52,6.52A6.52,6.52,0,0,0,1475.93,1350.93Zm0,11a4.52,4.52,0,1,1,4.52-4.52A4.53,4.53,0,0,1,1475.93,1362Z"/><path class="cls-15" d="M1518.93,1340.35h-28.59v7.08a17.54,17.54,0,0,0-31,4.26,12.84,12.84,0,0,0-12.73-11.34h-14.85v9c-2.44-7.25-10.2-10.06-16.73-9s-10.55,5.24-10.5,10.83c0,4.48,2.87,6.93,6.06,8.55l-7.79,2.75.18.86c1.72,8.16,8.34,11.61,14.7,11.61.61,0,1.22,0,1.82-.09,5.45-.57,11.26-3.85,12.26-9.75v9.51h12.76V1366h2.09a12.85,12.85,0,0,0,11.78-7.76,17.55,17.55,0,1,0,33.8-7.33h6.13v23.65H1511V1350.9h8Zm-99.62,32.45c-5.75.59-12.22-2-14.15-9.1l6.76-2.38c1.89,3.72,5.35,4.91,7.37,4.51a2.14,2.14,0,0,0,2-2c0-2.16-2.56-3.1-5.52-4.18-4.08-1.49-9.15-3.35-9.2-8.53,0-5.51,4.52-8.18,8.81-8.84,5.49-.84,12,1.34,14.3,7.08l-6.9,2.36c-1.88-2.74-4.34-3.57-5.93-3.14a2,2,0,0,0-1.61,2c0,1.9,2.24,2.69,5.09,3.68,4.29,1.51,9.63,3.39,9.63,9.06S1424.43,1372.27,1419.31,1372.8Zm-5.18-11.64.93.34c1.88.69,4.21,1.54,4.24,2.22a1.92,1.92,0,0,1-1.4.13A5.9,5.9,0,0,1,1414.13,1361.16Zm6.48-9c-1.35-.48-3.39-1.23-3.41-1.62a.72.72,0,0,1,.47-.11l.23,0A4.53,4.53,0,0,1,1420.61,1352.17Zm3.33,1.23,7.84-2.68v10.7C1431,1357.05,1427.37,1354.83,1423.94,1353.4Zm22.69,10.59h-4.09v8.56h-8.76v-30.2h12.85a10.82,10.82,0,0,1,0,21.64Zm29.3,9a15.56,15.56,0,1,1,15.56-15.56A15.58,15.58,0,0,1,1475.93,1373Zm41-24.11h-8v23.65h-8.63V1348.9h-8v-6.55h24.59Z"/><path class="cls-15" d="M1526.69,1361.53h6.7l-3.31-9.86Zm2.8-2,.57-1.64.55,1.64Z"/><path class="cls-15" d="M1585.73,1350.93a6.52,6.52,0,1,0,6.52,6.52A6.52,6.52,0,0,0,1585.73,1350.93Zm0,11a4.52,4.52,0,1,1,4.52-4.52A4.53,4.53,0,0,1,1585.73,1362Z"/><path class="cls-15" d="M1620,1350.93a6.52,6.52,0,1,0,6.52,6.52A6.52,6.52,0,0,0,1620,1350.93Zm0,11a4.52,4.52,0,1,1,4.52-4.52A4.53,4.53,0,0,1,1620,1362Z"/><g class="cls-16"><path class="cls-17" d="M1404,1363.06l8.47-3c2.21,5.52,7.82,5.61,7.82,3.73,0-3.78-14.63-3.13-14.72-12.7-.1-12.38,21.48-13.89,25.39-1.15l-8.6,2.94c-2.44-4.18-6.12-4-6.12-2.39,0,3.27,14.72,2.72,14.72,12.74C1430.94,1375.76,1407.34,1379.07,1404,1363.06Z"/><path class="cls-17" d="M1432.78,1341.35h13.85a11.82,11.82,0,0,1,0,23.64h-3.09v8.56h-10.76Zm10.76,10.07v3.45H1446a1.7,1.7,0,0,0,1.75-1.7,1.75,1.75,0,0,0-1.75-1.75Z"/><path class="cls-17" d="M1492.49,1357.45a16.56,16.56,0,1,1-16.56-16.56A16.55,16.55,0,0,1,1492.49,1357.45Zm-22.08,0a5.52,5.52,0,1,0,5.52-5.52A5.54,5.54,0,0,0,1470.41,1357.45Z"/><path class="cls-17" d="M1510,1349.9v23.65h-10.63V1349.9h-8v-8.55h26.59v8.55Z"/><path class="cls-17" d="M1536.83,1341.35l10.86,32.2h-11.32l-1.33-4h-9.89l-1.43,4H1512.4l10.86-32.2Zm-4.83,19.18-1.93-5.75-2,5.75Z"/><path class="cls-17" d="M1548.38,1341.35h10.72V1365h10.76v8.6h-21.48Z"/><path class="cls-17" d="M1602.29,1357.45a16.56,16.56,0,1,1-16.56-16.56A16.55,16.55,0,0,1,1602.29,1357.45Zm-22.08,0a5.52,5.52,0,1,0,5.52-5.52A5.54,5.54,0,0,0,1580.21,1357.45Z"/><path class="cls-17" d="M1636.56,1357.45a16.56,16.56,0,1,1-16.56-16.56A16.55,16.55,0,0,1,1636.56,1357.45Zm-22.08,0a5.52,5.52,0,1,0,5.52-5.52A5.54,5.54,0,0,0,1614.48,1357.45Z"/></g><text class="cls-18" transform="translate(1035.99 703.49)"><tspan class="cls-19">s</tspan><tspan class="cls-20" x="18.33" y="0">t</tspan><tspan class="cls-21" x="31.77" y="0">a</tspan><tspan class="cls-22" x="55.38" y="0">r</tspan><tspan x="72.78" y="0">t</tspan></text><text class="cls-23" transform="translate(977.5 961.37)"><tspan class="cls-19">s</tspan><tspan class="cls-20" x="18.33" y="0">t</tspan><tspan class="cls-21" x="31.77" y="0">a</tspan><tspan class="cls-22" x="55.38" y="0">r</tspan><tspan x="72.78" y="0">t</tspan></text><path class="cls-2" d="M1730.82,916.68h128.08a5.67,5.67,0,0,1,5.67,5.67v128.08a8,8,0,0,1-8,8H1730.82a8,8,0,0,1-8-8V924.67a8,8,0,0,1,8-8Z"/><rect class="cls-2" x="1319.17" y="1007.2" width="63.01" height="21.62"/><text class="cls-24" transform="translate(1475.84 895.46)">N<tspan class="cls-25" x="22.74" y="0">e</tspan><tspan x="39.59" y="0">w</tspan></text><path class="cls-26" d="M3407,1166.68a55.74,55.74,0,0,0,7.15,3.56"/><path class="cls-27" d="M3419.69,1172c17.37,4,23.49-11.08,25.63-23.44"/><path class="cls-28" d="M3445.75,1145.7a77,77,0,0,0,.66-11.82c0-12.66-7-22.92-15.63-22.92s-15.64,10.26-15.64,22.92c0,0-.81,23.81,36.59,23.81s-1.63,21-1.63,35.65v14.26"/><path class="cls-26" d="M3450.1,1210.51v8"/><polygon class="cls-1" points="1450.34 541.59 1492.97 627.96 1588.29 641.81 1519.32 709.04 1535.6 803.98 1450.34 759.16 1365.09 803.98 1381.37 709.04 1312.4 641.81 1407.72 627.96 1450.34 541.59"/><rect x="3528.57" y="1463.08" width="102.05" height="102.05"/><path class="cls-2" d="M3039.1,1748.82a9.84,9.84,0,1,1-9.84-9.85,9.84,9.84,0,0,1,9.84,9.85"/><path class="cls-2" d="M3025.27,1764.49c0-4.19-4.11-7.76-8.29-7.76a7.58,7.58,0,0,0-7.58,7.58l10,54.6-10,22.11h13.13l10-21.73-3.31-21.64,6.25-1.37Z"/><path class="cls-2" d="M3097.46,1760v46.52h-14.83v19.73c0,7.71,6.51,14,14.83,14.74v.08h14V1760Z"/><path class="cls-2" d="M3038,1797.44l2.12,2.12a83.41,83.41,0,0,1,6.59-5.87l-1.87-2.35A84.86,84.86,0,0,0,3038,1797.44Z"/><path class="cls-2" d="M3070.7,1787.12l-2.55,1.58a10.75,10.75,0,0,1,.89,1.83,7.14,7.14,0,0,1,.48,2.54,6.46,6.46,0,0,1-6.3,6.45,6.38,6.38,0,0,1-2-.34l-1,2.83a9,9,0,0,0,3,.51,9.39,9.39,0,0,0,9.3-9.45,10.17,10.17,0,0,0-.68-3.61A14.14,14.14,0,0,0,3070.7,1787.12Z"/><path class="cls-2" d="M3054.63,1789.81c0-.49,0-1,.09-1.5,3.14-1.68,5.9-2.58,8.13-2.58a6,6,0,0,1,3.44,1l1.67-2.48c-3.07-2.07-7.28-1.93-12.44.36a22.39,22.39,0,0,1,1.39-3.31l-2.67-1.38a24.08,24.08,0,0,0-2.28,6.54c-1.39.82-2.83,1.75-4.32,2.83l1.75,2.43c.77-.55,1.52-1.06,2.26-1.54a12.07,12.07,0,0,0,5.16,10.13l1.71-2.46A9.35,9.35,0,0,1,3054.63,1789.81Z"/><path class="cls-2" d="M3078.53,1771.82l-1.86,2.35c4,3.2,7.59,9.22,9.79,16.51l2.87-.87C3087,1782,3083,1775.39,3078.53,1771.82Z"/><path class="cls-2" d="M3066,1769c-3.57,1-7.08,3.78-9.86,7.76l2.46,1.72c2.35-3.37,5.36-5.77,8.23-6.6a10,10,0,0,1,7.3.61l1.3-2.7A13,13,0,0,0,3066,1769Z"/><path class="cls-2" d="M3090.25,1793.22l-2.93.68a38.77,38.77,0,0,1,1.08,8.57h3A42.54,42.54,0,0,0,3090.25,1793.22Z"/><path class="cls-29" d="M3082.76,1680.72a82.59,82.59,0,0,1,6.71-6"/><path class="cls-30" d="M3092.17,1672.68c8.22-5.93,18.23-10.18,21.92-.46,2.56,6.71-3.78,12.89-10,10.48a14.13,14.13,0,0,1-1.3-.57"/><path class="cls-31" d="M3101.32,1681.26c-10.23-7.11-1.33-25.67,8.71-28.56,10.86-3.13,18.82,9.48,22,21.43"/><path class="cls-29" d="M3132.44,1675.78a40.71,40.71,0,0,1,1.12,8.91"/><text class="cls-32" transform="translate(1316.24 1027.04)"><tspan class="cls-33">R</tspan><tspan class="cls-34" x="20.22" y="0">a</tspan><tspan class="cls-35" x="36.96" y="0">t</tspan><tspan x="48.05" y="0">e</tspan></text><path class="cls-2" d="M1898.08,2104.57H1882.4a68.36,68.36,0,0,1-21.57-3.38l-14.8,79h88.54l-14.8-79A72.75,72.75,0,0,1,1898.08,2104.57Z"/><path class="cls-2" d="M1824.46,2040.2a51.8,51.8,0,0,0,51.8,51.8h28.08a51.8,51.8,0,0,0,51.8-51.8V2034H1824.45Z"/><path class="cls-2" d="M1825.44,2020v1.34a5.59,5.59,0,0,0,5.6,5.6h118.52a5.6,5.6,0,0,0,5.6-5.6V2020a5.6,5.6,0,0,0-5.6-5.6H1831a5.59,5.59,0,0,0-5.6,5.59Z"/><path class="cls-2" d="M1879.1,2008.49h22.39v-229.6h62.31a21.69,21.69,0,0,0,21.69-21.7v-91a21.7,21.7,0,0,0-21.69-21.7h-147a21.7,21.7,0,0,0-21.7,21.7v91a21.69,21.69,0,0,0,21.7,21.7h62.3Z"/><path class="cls-2" d="M2122.53,1868.76a22.79,22.79,0,0,0-2.62-.26h-67.2c-.35,0-.68.08-1,.1-12.68-.5-45.63,27.18-83.44,10.35V1857.3h-4.9v-70.47h-11.2v70.47h-4.89v11.35a22.38,22.38,0,0,0-17.17,39,81.94,81.94,0,0,0,17.17,10.8v6h15.84c20.31,6.07,42.15,6.56,67.22-.89V2159.7a22.4,22.4,0,0,0,44.8,0V2025.29h22.39v134.4a22.4,22.4,0,0,0,44.8,0V1928.91c10,13.53,18.62,38.09,13.23,82.48a22.42,22.42,0,0,0,19.54,24.94,23,23,0,0,0,2.73.16,22.4,22.4,0,0,0,22.21-19.7c13.78-113.6-52.49-151.09-77.48-148Z"/><path class="cls-2" d="M2131.1,1799.26a44.8,44.8,0,1,1-44.8-44.8,44.8,44.8,0,0,1,44.8,44.8"/><path class="cls-2" d="M2340.15,1410.82H2333v-7.18a1.5,1.5,0,1,0-3,0v7.18h-7.18a1.5,1.5,0,0,0,0,3H2330V1421a1.5,1.5,0,0,0,3,0v-7.18h7.18a1.5,1.5,0,0,0,0-3Z"/><path class="cls-2" d="M2331.47,1396.82a15.5,15.5,0,1,0,15.5,15.5A15.52,15.52,0,0,0,2331.47,1396.82Zm0,30a14.5,14.5,0,1,1,14.5-14.5A14.52,14.52,0,0,1,2331.47,1426.82Z"/></g><g id="Layer_10" data-name="Layer 10"><g class="cls-36"><path class="cls-37" d="M1081.34,515.31c-6.28,0-94.74-16-30.06-33.83.11,0,1.32-.38,2.93-.76,2.34,3.21,5.09,3.82,8.4.66,2.36-2.9-4.31-1.64-8.4-.66-8.32-11.39-11.4-55.68-15.56-80.27,8.26-6.22,18.82-16.47,27.47-25.1a21.49,21.49,0,0,1,30.45,0c8.65,8.63,19.21,18.88,27.47,25.1-4.16,24.59-7.24,68.88-15.56,80.27-4.09-1-10.76-2.24-8.4.66,3.31,3.16,6.06,2.55,8.4-.66,1.61.38,2.82.73,2.93.76C1176.09,499.34,1087.63,515.31,1081.34,515.31Z"/><path class="cls-37" d="M1038.65,400.45c-10.47,7.88-17.22,9.28-11.65-7.3S1035.88,384.06,1038.65,400.45Z"/><path class="cls-37" d="M1062.61,481.38c-3.31,3.16-6.06,2.55-8.4-.66C1058.3,479.74,1065,478.48,1062.61,481.38Z"/><path class="cls-37" d="M1108.48,480.72c-2.34,3.21-5.09,3.82-8.4.66C1097.72,478.48,1104.39,479.74,1108.48,480.72Z"/><path class="cls-37" d="M1124,400.45c2.77-16.39,6-24,11.65-7.3S1134.51,408.33,1124,400.45Z"/><path class="cls-37" d="M1081.35,628.49c23.09,0,36.05-45.33,36.05-26.36s-5.72,10-6.7,5.2c-.78-3.91-6.18-36.24-8.2-49.76-.54-3.64-.56-8.47,3-10.42,29.17-16,41.42-49.34,47.29-45.87,12,7.08-29.92,32.18-71.43,32.18s-83.38-25.1-71.43-32.18c5.86-3.47,18.11,29.84,47.29,45.87,3.55,2,3.52,6.78,3,10.42-2,13.52-7.41,45.85-8.2,49.76-1,4.83-6.69,13.77-6.69-5.2S1058.25,628.49,1081.35,628.49Z"/></g><path class="cls-38" d="M1081.35,630c23,0,37.94-47.4,37.94-27.56s-5.7,10.48-6.67,5.44c-.79-4.09-6.16-37.89-8.18-52-.54-3.8-.56-8.85,3-10.89,29.09-16.76,39.31-47.28,45.16-43.65,11.93,7.41-29.83,30.42-71.23,30.42s-83.16-23-71.24-30.42c5.85-3.63,16.07,26.89,45.17,43.65,3.53,2,3.51,7.09,3,10.89-2,14.14-7.39,47.94-8.18,52-1,5-6.67,14.39-6.67-5.44S1058.31,630,1081.35,630Z"/><path class="cls-38" d="M1081.35,514.08c6.43,0,103.2-13,31.19-34.75-.42-.12-.84-.27-1.25-.42-9.74-3.63-14.33-2.67-11.8.44,26.19,32.27,21.23-136.78,38.26-86.6,10.54,31.06-21.45.7-41.77-19.43a20.79,20.79,0,0,0-29.27,0c-20.32,20.13-52.31,50.49-41.77,19.43,17-50.18,12.07,118.87,38.27,86.6,2.52-3.11-2.07-4.07-11.81-.44-.41.15-.83.3-1.24.42C978.14,501.06,1074.91,514.08,1081.35,514.08Z"/><g class="cls-39"><path class="cls-15" d="M1081.34,1421.46c-7.13,0-107.54-18.13-34.12-38.4.13,0,1.5-.43,3.33-.86,2.65,3.64,5.77,4.33,9.53.75,2.68-3.29-4.89-1.86-9.53-.75-9.45-12.93-12.94-63.2-17.67-91.11,9.38-7.07,21.37-18.7,31.19-28.5a24.41,24.41,0,0,1,34.56,0c9.82,9.8,21.8,21.43,31.18,28.5-4.72,27.91-8.22,78.18-17.66,91.11-4.64-1.11-12.22-2.54-9.54.75,3.76,3.58,6.88,2.89,9.54-.75,1.83.43,3.2.83,3.32.86C1188.89,1403.33,1088.48,1421.46,1081.34,1421.46Z"/><path class="cls-37" d="M1032.88,1291.09c-11.88,8.94-19.54,10.53-13.22-8.29C1026,1263.81,1029.74,1272.48,1032.88,1291.09Z"/><path class="cls-37" d="M1060.08,1383c-3.76,3.58-6.88,2.89-9.53-.75C1055.19,1381.09,1062.76,1379.66,1060.08,1383Z"/><path class="cls-37" d="M1112.15,1382.2c-2.66,3.64-5.78,4.33-9.54.75C1099.93,1379.66,1107.51,1381.09,1112.15,1382.2Z"/><path class="cls-37" d="M1129.81,1291.09c3.14-18.61,6.85-27.28,13.22-8.29C1149.36,1301.62,1141.69,1300,1129.81,1291.09Z"/><path class="cls-15" d="M1081.35,1549.93c26.21,0,40.92-51.46,40.92-29.92s-6.5,11.38-7.6,5.91c-.9-4.44-7-41.15-9.31-56.49-.61-4.13-.64-9.62,3.39-11.83,33.11-18.19,47-56,53.67-52.06,13.57,8-34,36.52-81.07,36.52s-94.65-28.49-81.08-36.52c6.66-4,20.56,33.87,53.67,52.06,4,2.21,4,7.7,3.39,11.83-2.29,15.34-8.41,52-9.31,56.49-1.1,5.47-7.59,15.62-7.59-5.91S1055.13,1549.93,1081.35,1549.93Z"/></g><path class="cls-40" d="M1081.35,1551.65c26.14,0,43.07-53.79,43.07-31.28s-6.47,11.9-7.57,6.18c-.9-4.64-7-43-9.29-59.06-.61-4.32-.64-10,3.38-12.36,33-19,44.63-53.67,51.27-49.54,13.53,8.4-33.86,34.52-80.86,34.52s-94.4-26.12-80.86-34.52c6.64-4.13,18.24,30.52,51.26,49.54,4,2.31,4,8,3.38,12.36-2.28,16-8.39,54.42-9.28,59.06-1.1,5.72-7.58,16.33-7.58-6.18S1055.2,1551.65,1081.35,1551.65Z"/><path class="cls-40" d="M1081.35,1420.07c7.3,0,117.15-14.79,35.4-39.45-.47-.14-1-.3-1.41-.47-11.06-4.12-16.27-3-13.4.5,29.73,36.62,24.1-155.27,43.43-98.3,12,35.24-24.34.78-47.41-22.07a23.61,23.61,0,0,0-33.22,0c-23.07,22.85-59.38,57.31-47.42,22.07,19.34-57,13.7,134.92,43.44,98.3,2.86-3.54-2.35-4.62-13.41-.5-.46.17-.94.33-1.41.47C964.2,1405.28,1074,1420.07,1081.35,1420.07Z"/><path class="cls-15" d="M1465.38,748.11c1.12,7.86,3.84,25.07,4.92,31.57-4.26,6.18-11.2,16.68-20,16.68s-15.69-10.48-19.95-16.67c1.08-6.49,3.8-23.71,4.92-31.58.35-2.47.37-5.76-1.94-7.08a64.07,64.07,0,0,1-18-16.15,85,85,0,0,0,70,0,64.12,64.12,0,0,1-18,16.15C1465,742.35,1465,745.64,1465.38,748.11Z"/><path class="cls-41" d="M1415.35,724.88c-10-4.47-15.41-9.74-11.36-12.25C1406.2,711.25,1409.37,717.37,1415.35,724.88Z"/><path class="cls-41" d="M1430.4,779.69c-.19,1.1-.33,1.89-.4,2.28-.63,3.28-4.35,9.37-4.35-3.54C1425.65,773.05,1427.34,775.27,1430.4,779.69Z"/><path class="cls-41" d="M1475,778.43c0,12.91-3.71,6.82-4.34,3.54-.07-.39-.21-1.18-.4-2.29C1473.36,775.27,1475,773.05,1475,778.43Z"/><path class="cls-41" d="M1485.35,724.88c6-7.51,9.14-13.63,11.35-12.25C1500.74,715.14,1495.3,720.41,1485.35,724.88Z"/><path class="cls-41" d="M1450.35,720.93c-4.19,0-67.16-8.48-20.3-22.62.26-.08.53-.16.78-.26,2,3.54,4.49,4.24,7.71.28,1.65-2-1.34-2.65-7.68-.29h0c-5-8.88-7-35.67-9.54-51,5.85-4.32,13.49-11.7,19.54-17.69a13.52,13.52,0,0,1,19,0c6.05,6,13.69,13.38,19.54,17.7-2.55,15.36-4.49,42.15-9.55,51h0c-6.33-2.36-9.32-1.74-7.68.29,3.22,4,5.71,3.26,7.71-.28.26.1.52.18.78.26C1517.51,712.45,1454.54,720.93,1450.35,720.93Z"/><path class="cls-15" d="M1438.54,698.33c-3.22,4-5.71,3.26-7.71-.28h0C1437.2,695.68,1440.19,696.3,1438.54,698.33Z"/><path class="cls-15" d="M1469.86,698.05c-2,3.54-4.49,4.24-7.71.28-1.64-2,1.35-2.65,7.68-.29Z"/><path class="cls-15" d="M1450.35,720.93c-4.19,0-67.16-8.48-20.3-22.62.26-.08.53-.16.78-.26,2,3.54,4.49,4.24,7.71.28,1.65-2-1.34-2.65-7.68-.29h0c-5-8.88-7-35.67-9.54-51,5.85-4.32,13.49-11.7,19.54-17.69a13.52,13.52,0,0,1,19,0c6.05,6,13.69,13.38,19.54,17.7-2.55,15.36-4.49,42.15-9.55,51h0c-6.33-2.36-9.32-1.74-7.68.29,3.22,4,5.71,3.26,7.71-.28.26.1.52.18.78.26C1517.51,712.45,1454.54,720.93,1450.35,720.93Z"/><path class="cls-41" d="M1421.29,647c-6.94,5.12-11.37,5.92-7.65-5S1419.48,636.14,1421.29,647Z"/><path class="cls-41" d="M1479.41,647c1.81-10.88,3.91-16,7.64-5S1486.35,652.14,1479.41,647Z"/><text class="cls-42" transform="translate(988.95 1222.21)">FI<tspan class="cls-43" x="14.34" y="0">n</tspan><tspan x="24.63" y="0">d a </tspan><tspan class="cls-44" x="52.32" y="0">t</tspan><tspan x="58.41" y="0">oilet a</tspan><tspan class="cls-45" x="105.69" y="0">r</tspan><tspan x="111.84" y="0">ou</tspan><tspan class="cls-46" x="131.73" y="0">n</tspan><tspan x="142.02" y="0">d </tspan><tspan class="cls-47" x="156.46" y="0">y</tspan><tspan x="164.91" y="0">ou</tspan></text></g><g id="palette"><rect y="191.46" width="280.63" height="481.32"/><circle class="cls-2" cx="140.31" cy="321.11" r="67.86"/><circle class="cls-17" cx="140.31" cy="479.59" r="55.77"/><circle class="cls-48" cx="140.31" cy="597.63" r="27.43"/></g><g id="Layer_14" data-name="Layer 14"><rect class="cls-17" x="2506.25" y="801.05" width="439.51" height="758.41"/><rect class="cls-2" x="1925.23" y="916.68" width="141.73" height="141.73" rx="8.5"/><path class="cls-2" d="M2236.09,1029.38v20.53a8.51,8.51,0,0,1-8.51,8.5H2102.86a8.5,8.5,0,0,1-8.5-8.5v-20.34Z"/><line class="cls-49" x1="1749.75" y1="985.79" x2="1805.04" y2="1041.08"/><text class="cls-50" transform="translate(2108.12 1049.47)"><tspan class="cls-51">A</tspan><tspan class="cls-52" x="11.34" y="0">C</tspan><tspan x="21.96" y="0">CESSIBILI</tspan><tspan class="cls-53" x="93.95" y="0">T</tspan><tspan x="103.93" y="0">Y</tspan></text><path class="cls-17" d="M2067,1029.38v20.53a8.51,8.51,0,0,1-8.51,8.5H1933.73a8.5,8.5,0,0,1-8.5-8.5v-20.34Z"/><text class="cls-54" transform="translate(1938.99 1049.47)"><tspan class="cls-51">A</tspan><tspan class="cls-52" x="11.34" y="0">C</tspan><tspan x="21.96" y="0">CESSIBILI</tspan><tspan class="cls-53" x="93.95" y="0">T</tspan><tspan x="103.93" y="0">Y</tspan></text><path class="cls-55" d="M2686.89,887.23H2562.17a8.5,8.5,0,0,0-8.5,8.5v104.2H2695.4V895.73A8.51,8.51,0,0,0,2686.89,887.23Z"/><path class="cls-56" d="M2553.67,1020.46a8.49,8.49,0,0,0,8.5,8.5h124.72a8.5,8.5,0,0,0,8.51-8.5V999.93H2553.65Z"/><text class="cls-57" transform="translate(2565.77 1020.02)"><tspan class="cls-25">A</tspan><tspan class="cls-58" x="10.98" y="0">C</tspan><tspan x="22.14" y="0">CESSIBILI</tspan><tspan class="cls-59" x="98.8" y="0">T</tspan><tspan class="cls-60" x="107.66" y="0">Y</tspan></text><polygon class="cls-61" points="2893.14 886.8 2751.41 886.8 2751.41 886.8 2751.41 999.5 2893.14 999.5 2893.14 886.8"/><path class="cls-62" d="M2893.14,1022.86V999.5H2751.4v23.37a5.66,5.66,0,0,0,5.67,5.66h130.39A5.67,5.67,0,0,0,2893.14,1022.86Z"/><text class="cls-63" transform="translate(2773.54 1019.6)"><tspan class="cls-64">A</tspan><tspan class="cls-65" x="11.39" y="0">cc</tspan><tspan x="29.12" y="0">essibili</tspan><tspan class="cls-25" x="82.46" y="0">t</tspan><tspan x="88.8" y="0">y</tspan></text><path class="cls-17" d="M2660.49,944.91l-2.32,28.29c-.59,7.33-11.49,6.32-10.9-.88l1.8-22-7.4.41a28,28,0,0,1-4.76,31.48l-7.07-7.07c10.41-11.46,2.36-30.07-13.31-30.07a17.94,17.94,0,0,0-12.09,4.67l-7.07-7.07a28,28,0,0,1,14.64-7.23L2625.56,920l-7.66-4.46-9.29,8.27c-5.39,4.82-12.7-3.33-7.28-8.17l12.23-10.91a5.44,5.44,0,0,1,6.39-.65S2645,918.63,2645,918.67a6.42,6.42,0,0,1,1.1,9.46l-10.51,12,19.09-1.06a5.46,5.46,0,0,1,5.77,5.88Zm-11.67-27.7a9.16,9.16,0,1,0-9.16-9.16A9.16,9.16,0,0,0,2648.82,917.21ZM2616.55,981a18,18,0,0,1-14.88-28.08l-7.14-7.14a27.68,27.68,0,0,0-6,17.22c0,23.51,27.1,36.22,45.22,22l-7.14-7.14a17.87,17.87,0,0,1-10.09,3.11Z"/><path class="cls-17" d="M1836,987.51l-2.73,33.31c-.7,8.62-13.53,7.43-12.83-1l2.11-25.94-8.7.48a33,33,0,0,1-5.61,37.07l-8.32-8.33c12.26-13.49,2.77-35.41-15.68-35.41a21.11,21.11,0,0,0-14.23,5.51l-8.32-8.32a32.82,32.82,0,0,1,17.24-8.52l15.94-18.15-9-5.25L1775,962.66c-6.36,5.68-15-3.91-8.58-9.61l14.4-12.86a6.42,6.42,0,0,1,7.52-.76s29.5,17.13,29.54,17.18c3.43,2.14,4.38,7.62,1.29,11.14l-12.37,14.08,22.47-1.25a6.43,6.43,0,0,1,6.8,6.93Zm-13.74-32.62a10.78,10.78,0,1,0-10.78-10.78A10.78,10.78,0,0,0,1822.29,954.89Zm-38,75.12c-17.07,0-27-19.19-17.51-33.06l-8.41-8.41a32.61,32.61,0,0,0-7,20.27c0,27.68,31.92,42.65,53.24,25.94l-8.4-8.4a21.11,21.11,0,0,1-11.89,3.66Z"/><polygon class="cls-66" points="2893.14 1052.03 2751.41 1052.03 2751.41 1052.03 2751.41 1164.73 2893.14 1164.73 2893.14 1052.03"/><path class="cls-67" d="M2893.14,1188.09v-23.36H2751.4v23.37a5.66,5.66,0,0,0,5.67,5.66h130.39A5.67,5.67,0,0,0,2893.14,1188.09Z"/><text class="cls-68" transform="translate(2759.94 1184.82)">BA<tspan class="cls-69" x="22.06" y="0">B</tspan><tspan class="cls-70" x="33.15" y="0">Y</tspan><tspan x="42.21" y="0">-FRIEND</tspan><tspan class="cls-71" x="107.43" y="0">L</tspan><tspan class="cls-72" x="115.15" y="0">Y</tspan></text><rect class="cls-73" x="2551.85" y="1052.03" width="141.73" height="112.7"/><polygon class="cls-74" points="2693.58 1193.76 2693.58 1164.73 2551.84 1164.73 2551.85 1193.76 2693.58 1193.76"/><path class="cls-2" d="M2826.72,1075.47a13.53,13.53,0,1,1-16.83-9.09,13.53,13.53,0,0,1,16.83,9.09"/><path class="cls-2" d="M2840.17,1117.66l-6.63,10,8,2.54-4.5,10.75h0a4.86,4.86,0,0,0,9,3.77h0l6-14.41c1.32-3.15.49-5.62-2.47-7.32Z"/><path class="cls-2" d="M2828.12,1143.68h0l-9.67-6.52,5.32-6.52-11.06-4.76-4.89,9.66c-1.54,3-.89,5.57,1.94,7.48l12.95,8.73h0a4.85,4.85,0,0,0,7.35-5.42,4.89,4.89,0,0,0-1.94-2.64Z"/><path class="cls-2" d="M2840.76,1073.75a4.52,4.52,0,0,0-2.7,2.2l-6.84,12.67c-1,1.83-2.06,3.16-4,3.76l-17.46,5.22c-2,.59-3.62.07-5.46-.92l-12.66-6.84a4.55,4.55,0,1,0-4.32,8l20.35,11,3.71,12.4,27.46-8.21-3.71-12.39,11-20.36a4.55,4.55,0,0,0-5.31-6.53Z"/><path class="cls-2" d="M3214.68,1748.66a16.57,16.57,0,0,1-3.22,24.1,18.79,18.79,0,0,1-25.43-3,16.59,16.59,0,0,1,3.22-24.11,18.8,18.8,0,0,1,25.43,3.06"/><path class="cls-2" d="M3251.89,1792.49l-3.43,14.94,11.26-.67-.43,14.81h0a5.94,5.94,0,0,0,1.36,4,6.76,6.76,0,0,0,9.13,1.1,6.06,6.06,0,0,0,2.52-4.69h0l.58-19.84c.12-4.33-2.11-6.87-6.64-7.53Z"/><path class="cls-2" d="M3249.4,1828.84h0l-15.24-3.3,3.49-10.17-16.12-.58-1.45,13.69c-.46,4.32,1.58,7,6,8l20.41,4.42h0a6.77,6.77,0,0,0,5.41-1.14,6,6,0,0,0,1.16-8.65,6.53,6.53,0,0,0-3.7-2.24Z"/><path class="cls-2" d="M3231.41,1740.19a5.65,5.65,0,0,0-2.31,3.84l-2.43,18.14c-.35,2.63-1.05,4.7-3.25,6.32l-19.31,14.18c-2.21,1.62-4.49,1.74-7.26,1.41l-19.15-2.3a6.34,6.34,0,0,0-4.5,1.16,5.6,5.6,0,0,0-1.09,8.12,6.17,6.17,0,0,0,4.07,2.19l30.76,3.7,10.62,13,30.37-22.3-10.63-13,3.9-29.16a5.5,5.5,0,0,0-1.23-4.27,6.32,6.32,0,0,0-8.56-1Z"/><path class="cls-17" d="M2628.67,1075.47a13.53,13.53,0,1,1-16.83-9.09,13.53,13.53,0,0,1,16.83,9.09"/><path class="cls-17" d="M2642.12,1117.66l-6.63,10,8,2.54L2639,1141h0a4.86,4.86,0,0,0,8.95,3.77h0l6-14.41c1.32-3.15.49-5.62-2.47-7.32Z"/><path class="cls-17" d="M2630.07,1143.68h0l-9.67-6.52,5.32-6.52-11.06-4.76-4.89,9.66c-1.54,3-.89,5.57,1.94,7.48l12.95,8.73h0a4.85,4.85,0,0,0,7.35-5.42,4.89,4.89,0,0,0-1.94-2.64Z"/><path class="cls-17" d="M2642.71,1073.75a4.52,4.52,0,0,0-2.7,2.2l-6.84,12.67c-1,1.83-2.05,3.16-4.05,3.76l-17.46,5.22c-2,.59-3.62.07-5.45-.92l-12.67-6.84a4.55,4.55,0,1,0-4.32,8l20.36,11,3.7,12.4,27.46-8.21-3.71-12.39,11-20.36a4.55,4.55,0,0,0-5.31-6.53Z"/><text class="cls-75" transform="translate(2560.25 1184.82)">BA<tspan class="cls-69" x="22.06" y="0">B</tspan><tspan class="cls-70" x="33.15" y="0">Y</tspan><tspan x="42.21" y="0">-FRIEND</tspan><tspan class="cls-71" x="107.43" y="0">L</tspan><tspan class="cls-72" x="115.15" y="0">Y</tspan></text><path class="cls-5" d="M2771.2,1238.11h125.74a5.67,5.67,0,0,1,5.67,5.67v125.74a8,8,0,0,1-8,8H2771.2a8,8,0,0,1-8-8V1246.1A8,8,0,0,1,2771.2,1238.11Z"/><path class="cls-2" d="M2765.93,1231.7H2894a5.67,5.67,0,0,1,5.67,5.67v128.08a8,8,0,0,1-8,8H2765.93a8,8,0,0,1-8-8V1239.69A8,8,0,0,1,2765.93,1231.7Z"/><path class="cls-17" d="M2834.74,1258.15a10.62,10.62,0,1,1-10.62-10.61,10.63,10.63,0,0,1,10.62,10.61"/><path class="cls-17" d="M2819,1275.79v-.93a8.17,8.17,0,0,0-16.34,0v82.74H2819v-44.1l9.64-4.15Z"/><path class="cls-17" d="M2848.86,1287.36v40.31H2836v17.09c0,6.68,5.65,12.14,12.85,12.78v.06h6.06v-70.24Z"/><path class="cls-17" d="M2827.92,1313.44a17.26,17.26,0,0,0,2.16,1.07l1.14-2.8a14.75,14.75,0,0,1-1.78-.89Z"/><path class="cls-17" d="M2832.52,1312.13l-.68,2.95a8.53,8.53,0,0,0,1.83.22,5.93,5.93,0,0,0,3.48-1.07l-1.73-2.48A3.5,3.5,0,0,1,2832.52,1312.13Z"/><path class="cls-17" d="M2832.71,1304.39a3.78,3.78,0,0,1-.27-1.26v0a7.57,7.57,0,0,1,.26-2l-2.92-.81a10.73,10.73,0,0,0-.37,2.79v0a6.74,6.74,0,0,0,.48,2.35Z"/><path class="cls-17" d="M2837.71,1301l2.89-.9a7,7,0,0,0-3.24-4.25l-1.39,2.69A4.12,4.12,0,0,1,2837.71,1301Z"/><path class="cls-17" d="M2838,1303.1v.06s0,.14,0,.35a19.85,19.85,0,0,1-.18,2.65l3,.39a24.93,24.93,0,0,0,.2-3c0-.22,0-.38,0-.44a8.92,8.92,0,0,0-.07-1.16l-3,.33A6.11,6.11,0,0,1,2838,1303.1Z"/><path class="cls-17" d="M2835.17,1298.3l-.11-3a5.54,5.54,0,0,0-4.57,3.25l2.68,1.42A2.68,2.68,0,0,1,2835.17,1298.3Z"/><path class="cls-17" d="M2842.14,1313.75a28.11,28.11,0,0,0-1.81,2.3l2.5,1.71a26.17,26.17,0,0,1,1.63-2.06c.33-.4.68-.82,1-1.22l-2.38-1.86Z"/><path class="cls-17" d="M2839,1319.47v3.09h3v-3.09a1.81,1.81,0,0,1,.14-.6l-2.81-1.12A4.58,4.58,0,0,0,2839,1319.47Z"/><path class="cls-17" d="M2843.07,1308.23l-.32,3a5.12,5.12,0,0,1,1.1.21l0,.06,2.68,1.4a3.67,3.67,0,0,0,.48-1.7C2847,1310.05,2846.3,1308.58,2843.07,1308.23Z"/><path class="cls-17" d="M2836,1307.38a5.89,5.89,0,0,1-2.75-1.94l-2.43,1.8a8.81,8.81,0,0,0,4.12,3Z"/><path class="cls-17" d="M2841,1311.17h.29l0-3H2841c-.43,0-.83,0-1.23,0l-2.17-.48a1.05,1.05,0,0,1,0,.19l-.17,0-.42,1.89a6.52,6.52,0,0,1-.73,1.29l2.41,1.83a9.19,9.19,0,0,0,1-1.66C2840.07,1311.15,2840.53,1311.17,2841,1311.17Z"/><rect class="cls-17" x="2839.04" y="1324.2" width="3.03" height="2.2"/><path class="cls-76" d="M1376.61,1642.31l-.93,11.32a2.19,2.19,0,0,1-4.36-.35l.72-8.82-3,.17a11.18,11.18,0,0,1-1.91,12.59l-2.83-2.83a7.19,7.19,0,0,0-10.16-10.16l-2.83-2.83a11.18,11.18,0,0,1,5.86-2.89l5.42-6.17-3.07-1.78-3.71,3.31a2.19,2.19,0,0,1-2.92-3.27l4.9-4.37a2.19,2.19,0,0,1,2.55-.26s10,5.82,10,5.84a2.56,2.56,0,0,1,.44,3.78l-4.2,4.79,7.64-.42a2.18,2.18,0,0,1,2.31,2.35Zm-4.67-11.08a3.67,3.67,0,1,0-3.67-3.67A3.67,3.67,0,0,0,1371.94,1631.23ZM1359,1656.76a7.21,7.21,0,0,1-6-11.24l-2.86-2.86a11.19,11.19,0,0,0,15.71,15.71l-2.86-2.86a7.11,7.11,0,0,1-4,1.25Z"/><path class="cls-76" d="M1453.73,1626.47a5.75,5.75,0,1,1-7.15-3.85,5.75,5.75,0,0,1,7.15,3.85"/><path class="cls-76" d="M1459.44,1644.4l-2.82,4.27,3.41,1.07-1.91,4.57h0a2,2,0,0,0-.07,1.39,2.06,2.06,0,0,0,3.87.21h0l2.56-6.12a2.23,2.23,0,0,0-1-3.11Z"/><path class="cls-76" d="M1454.32,1655.45h0l-4.11-2.77,2.26-2.77-4.69-2-2.08,4.11a2.22,2.22,0,0,0,.82,3.17l5.5,3.71h0a2.06,2.06,0,0,0,3.12-2.3,2,2,0,0,0-.83-1.12Z"/><path class="cls-76" d="M1459.69,1625.74a2,2,0,0,0-1.15.94l-2.9,5.38a3.54,3.54,0,0,1-2.1,1.71l-7,2.1a2.55,2.55,0,0,1-2-.2l-5.73-3.09a1.93,1.93,0,0,0-1.68-.08,2,2,0,0,0-1.16,2,1.91,1.91,0,0,0,1,1.51l8.64,4.67,1.58,5.27,11.66-3.49-1.57-5.26,4.67-8.65a2,2,0,0,0,.15-1.48l0,0a2.23,2.23,0,0,0-2.39-1.25Z"/><path class="cls-76" d="M1538.69,1625.93a3.55,3.55,0,1,1-3.55-3.56,3.55,3.55,0,0,1,3.55,3.56"/><path class="cls-76" d="M1533.44,1631.83v-.31a2.74,2.74,0,1,0-5.47,0v27.7h5.47v-14.76l3.22-1.39Z"/><path class="cls-76" d="M1543.42,1635.71v13.49h-4.3v5.72a4.49,4.49,0,0,0,4.3,4.28v0h2v-23.51Z"/><path class="cls-15" d="M1536.41,1644.44a8,8,0,0,0,.72.36l.39-.94a5.59,5.59,0,0,1-.6-.3Z"/><path class="cls-15" d="M1538,1644l-.23,1a2.68,2.68,0,0,0,.62.07,2,2,0,0,0,1.16-.36l-.58-.83A1.16,1.16,0,0,1,1538,1644Z"/><path class="cls-15" d="M1538,1641.41a1.57,1.57,0,0,1-.1-.42h0a2.46,2.46,0,0,1,.09-.67l-1-.27a3.59,3.59,0,0,0-.12.93v0a2.33,2.33,0,0,0,.16.78Z"/><path class="cls-15" d="M1539.69,1640.26l1-.3a2.33,2.33,0,0,0-1.09-1.43l-.46.9A1.41,1.41,0,0,1,1539.69,1640.26Z"/><path class="cls-15" d="M1539.79,1641v0a.5.5,0,0,1,0,.11,7.3,7.3,0,0,1-.06.89l1,.13a7.88,7.88,0,0,0,.07-1V1641c0-.13,0-.27,0-.39l-1,.11A2.62,2.62,0,0,1,1539.79,1641Z"/><path class="cls-15" d="M1538.84,1639.37l0-1a1.84,1.84,0,0,0-1.53,1.08l.9.48A.88.88,0,0,1,1538.84,1639.37Z"/><path class="cls-15" d="M1541.17,1644.54c-.21.25-.42.51-.6.77l.83.57c.16-.22.36-.46.55-.69l.33-.4-.8-.63Z"/><path class="cls-15" d="M1540.13,1646.46v1h1v-1a.39.39,0,0,1,0-.2l-1-.38A1.54,1.54,0,0,0,1540.13,1646.46Z"/><path class="cls-15" d="M1541.48,1642.69l-.1,1a1.85,1.85,0,0,1,.36.07v0l.9.47a1.18,1.18,0,0,0,.16-.57C1542.79,1643.3,1542.57,1642.81,1541.48,1642.69Z"/><path class="cls-15" d="M1539.13,1642.41a2,2,0,0,1-.92-.65l-.81.6a2.91,2.91,0,0,0,1.37,1Z"/><path class="cls-15" d="M1540.79,1643.68h.1v-1h-.52l-.73-.16s0,0,0,.06h-.06l-.14.64a2.87,2.87,0,0,1-.25.43l.81.61a3.31,3.31,0,0,0,.33-.56Z"/><rect class="cls-15" x="1540.13" y="1648.04" width="1.01" height="0.74"/><text class="cls-77" transform="translate(1335.89 1674.07)"><tspan class="cls-78">A</tspan><tspan class="cls-79" x="6.56" y="0">cc</tspan><tspan x="16.65" y="0">essibili</tspan><tspan class="cls-80" x="47.43" y="0">t</tspan><tspan x="51.08" y="0">y</tspan></text><text class="cls-77" transform="translate(1419.85 1674.07)">Ba<tspan class="cls-81" x="12.05" y="0">by</tspan><tspan x="22.92" y="0">-</tspan><tspan class="cls-82" x="26.32" y="0">f</tspan><tspan class="cls-78" x="29.58" y="0">r</tspan><tspan x="33.23" y="0">ie</tspan><tspan class="cls-83" x="41.26" y="0">n</tspan><tspan x="47.3" y="0">dly</tspan></text><text class="cls-77" transform="translate(1516.62 1674.07)"><tspan class="cls-78">E</tspan><tspan x="5.86" y="0">a</tspan><tspan class="cls-80" x="11.21" y="0">s</tspan><tspan x="15.66" y="0">y pee</tspan></text><path class="cls-76" d="M1376.61,1712.23l-.93,11.32a2.19,2.19,0,0,1-4.36-.35l.72-8.82-3,.17a11.18,11.18,0,0,1-1.91,12.59l-2.83-2.83a7.19,7.19,0,0,0-10.16-10.16l-2.83-2.83a11.18,11.18,0,0,1,5.86-2.89l5.42-6.17-3.07-1.79-3.71,3.32a2.19,2.19,0,0,1-2.92-3.27l4.9-4.37a2.19,2.19,0,0,1,2.55-.26s10,5.82,10,5.84a2.56,2.56,0,0,1,.44,3.78l-4.2,4.79,7.64-.43a2.19,2.19,0,0,1,2.31,2.36Zm-4.67-11.09a3.66,3.66,0,1,0-3.67-3.66A3.66,3.66,0,0,0,1371.94,1701.14ZM1359,1726.67a7.2,7.2,0,0,1-6-11.23l-2.86-2.86a11.19,11.19,0,0,0,15.71,15.71l-2.86-2.86a7.17,7.17,0,0,1-4,1.24Z"/><path class="cls-76" d="M1453.73,1696.39a5.75,5.75,0,1,1-7.15-3.86,5.75,5.75,0,0,1,7.15,3.86"/><path class="cls-76" d="M1459.44,1714.32l-2.82,4.26,3.41,1.08-1.91,4.57h0a2,2,0,0,0-.07,1.39,2.06,2.06,0,0,0,3.87.22h0l2.56-6.12a2.22,2.22,0,0,0-1-3.1Z"/><path class="cls-76" d="M1454.32,1725.37h0l-4.11-2.77,2.26-2.78-4.69-2-2.08,4.11a2.22,2.22,0,0,0,.82,3.17l5.5,3.71h0a2,2,0,0,0,1.73.26,2,2,0,0,0,1.39-2.56,2,2,0,0,0-.83-1.12Z"/><path class="cls-76" d="M1459.69,1695.66a2,2,0,0,0-1.15.94l-2.9,5.38a3.57,3.57,0,0,1-2.1,1.71l-7,2.1a2.55,2.55,0,0,1-2-.2l-5.73-3.09a1.93,1.93,0,1,0-1.83,3.4l8.64,4.67,1.58,5.27,11.66-3.49-1.57-5.27,4.67-8.64a2,2,0,0,0,.15-1.48l0,0a2.23,2.23,0,0,0-2.39-1.25Z"/><path class="cls-76" d="M1538.69,1695.84a3.55,3.55,0,1,1-3.55-3.55,3.55,3.55,0,0,1,3.55,3.55"/><path class="cls-76" d="M1533.44,1701.75v-.31a2.74,2.74,0,1,0-5.47,0v27.7h5.47v-14.76l3.22-1.39Z"/><path class="cls-76" d="M1543.42,1705.63v13.49h-4.3v5.72a4.49,4.49,0,0,0,4.3,4.28v0h2v-23.51Z"/><path class="cls-15" d="M1536.41,1714.36a8,8,0,0,0,.72.36l.39-.94a5.59,5.59,0,0,1-.6-.3Z"/><path class="cls-15" d="M1538,1713.92l-.23,1a3.37,3.37,0,0,0,.62.07,2,2,0,0,0,1.16-.36l-.58-.83A1.16,1.16,0,0,1,1538,1713.92Z"/><path class="cls-15" d="M1538,1711.33a1.57,1.57,0,0,1-.1-.42v0a2.39,2.39,0,0,1,.09-.66l-1-.27a3.59,3.59,0,0,0-.12.93h0a2.33,2.33,0,0,0,.16.79Z"/><path class="cls-15" d="M1539.69,1710.17l1-.3a2.34,2.34,0,0,0-1.09-1.42l-.46.9A1.39,1.39,0,0,1,1539.69,1710.17Z"/><path class="cls-15" d="M1539.79,1710.89v0a.84.84,0,0,1,0,.12,7.3,7.3,0,0,1-.06.89l1,.13a8,8,0,0,0,.07-1v-.15c0-.13,0-.26,0-.39l-1,.12A2.62,2.62,0,0,1,1539.79,1710.89Z"/><path class="cls-15" d="M1538.84,1709.29l0-1a1.87,1.87,0,0,0-1.53,1.09l.9.47A.89.89,0,0,1,1538.84,1709.29Z"/><path class="cls-15" d="M1541.17,1714.46a8.84,8.84,0,0,0-.6.77l.83.57c.16-.22.36-.46.55-.69l.33-.4-.8-.63Z"/><path class="cls-15" d="M1540.13,1716.38v1h1v-1a.46.46,0,0,1,0-.21l-1-.37A1.54,1.54,0,0,0,1540.13,1716.38Z"/><path class="cls-15" d="M1541.48,1712.61l-.1,1a1.85,1.85,0,0,1,.36.07v0l.9.47a1.18,1.18,0,0,0,.16-.57C1542.79,1713.22,1542.57,1712.73,1541.48,1712.61Z"/><path class="cls-15" d="M1539.13,1712.33a2,2,0,0,1-.92-.65l-.81.6a2.91,2.91,0,0,0,1.37,1Z"/><path class="cls-15" d="M1540.79,1713.6h.1v-1h-.52l-.73-.16s0,0,0,.06h-.06l-.14.63a2.44,2.44,0,0,1-.25.43l.81.62a3.31,3.31,0,0,0,.33-.56Z"/><rect class="cls-15" x="1540.13" y="1717.96" width="1.01" height="0.74"/><text class="cls-77" transform="translate(1335.89 1743.99)"><tspan class="cls-78">A</tspan><tspan class="cls-79" x="6.56" y="0">cc</tspan><tspan x="16.65" y="0">essibili</tspan><tspan class="cls-80" x="47.43" y="0">t</tspan><tspan x="51.08" y="0">y</tspan></text><text class="cls-77" transform="translate(1419.85 1743.99)">Ba<tspan class="cls-81" x="12.05" y="0">by</tspan><tspan x="22.92" y="0">-</tspan><tspan class="cls-82" x="26.32" y="0">f</tspan><tspan class="cls-78" x="29.58" y="0">r</tspan><tspan x="33.23" y="0">ie</tspan><tspan class="cls-83" x="41.26" y="0">n</tspan><tspan x="47.3" y="0">dly</tspan></text><text class="cls-77" transform="translate(1516.62 1743.99)"><tspan class="cls-78">E</tspan><tspan x="5.86" y="0">a</tspan><tspan class="cls-80" x="11.21" y="0">s</tspan><tspan x="15.66" y="0">y pee</tspan></text><path class="cls-84" d="M1317.51,1604h265.66a0,0,0,0,1,0,0v134a29.47,29.47,0,0,1-29.47,29.47H1347a29.47,29.47,0,0,1-29.47-29.47V1604A0,0,0,0,1,1317.51,1604Z"/><path class="cls-2" d="M3572.28,1783.71l-21,1.17,11.57-13.23c2.89-3.31,2-8.46-1.21-10.47,0,0-24.64-14.14-24.64-14.14a6,6,0,0,0-7,.72l-13.47,12.08c-6,5.35,1.08,13.37,7,8l10.22-9.15,6.45,3.93-14.76,16.87a30.81,30.81,0,0,0-14.47,6.42l-6.38-14.7a12.06,12.06,0,0,0-14.22-6.82l-10.43,2.88a4.52,4.52,0,0,0,2.39,8.71l10.43-2.89a3.05,3.05,0,0,1,3.59,1.72l8,18.42a31,31,0,1,0,53.74,3.36l8-.45-2,24.38c-.66,8,11.35,9.08,12,1l2.56-31.31A6,6,0,0,0,3572.28,1783.71Zm-42.05,46.6a20.07,20.07,0,1,1,20-20.07A20.05,20.05,0,0,1,3530.23,1830.31Z"/><ellipse class="cls-2" cx="3565.78" cy="1749.43" rx="10.08" ry="10.13"/><path class="cls-2" d="M3660.39,1748.52a9.37,9.37,0,1,1-9.37-9.37,9.36,9.36,0,0,1,9.37,9.37"/><path class="cls-2" d="M3678.09,1792.64c-2.75-8.12-5.42-16.26-8.4-24.32-1.78-4.79-6.52-7.35-12.56-7.35h-11.75c-6.88,0-11,2.47-13.08,8.06-2.84,7.75-5.53,15.54-8.28,23.32a2.64,2.64,0,0,0,1.43,3.5c2.44,1.35,5,.55,5.84-1.93,2.48-6.85,5-13.7,7.34-20.58.44-1.3,1.07-1.65,2.63-1.14-4.31,12.25-8.61,27.83-13,40.31h12.52V1814c0,8.64,0,13.94,0,22.57,0,2.82,1.84,4.56,4.73,4.59s4.43-1.63,4.43-4.5c0-8.53,0-13.71,0-22.24v-1.87h2.33v1.94c0,8.63,0,13.93,0,22.57a3.48,3.48,0,0,0,2.77,3.81c3.29,1,6.32-.83,6.33-3.85,0-8.69,0-14,0-22.74v-1.86h12.37c-4.36-12.39-8.66-28-13-40.3,1.67-.5,2.28,0,2.7,1.21,2.35,6.89,4.8,13.75,7.24,20.61.71,2,2.47,2.87,4.68,2.36s3.28-2,2.7-3.7Zm-25.22,11.94c-4.22.91-8.36-1.41-9-5a6.86,6.86,0,0,1,.68-3.89,28.72,28.72,0,0,1,4.18-6.55c.72-.89,1.48-1.76,2.28-2.72.77.9,1.48,1.71,2.16,2.54a30.6,30.6,0,0,1,4.1,6.25,9.54,9.54,0,0,1,.92,3c.35,2.88-2,5.67-5.33,6.39Z"/><path class="cls-2" d="M2944.16,1742.27a3.29,3.29,0,0,0-3.29-3.3h-3.29a3.3,3.3,0,0,0-3.29,3.3v6.58h-36.21v-6.58a3.3,3.3,0,0,0-3.29-3.3h-3.29a3.3,3.3,0,0,0-3.3,3.3v6.58h-6.55a4.91,4.91,0,0,0-4.65-3.29h-.63a4.91,4.91,0,0,0-4.65,3.29H2852v-6.58a3.3,3.3,0,0,0-3.3-3.3h-3.29a3.3,3.3,0,0,0-3.29,3.3v95.46a3.3,3.3,0,0,0,3.29,3.29h3.29a3.3,3.3,0,0,0,3.3-3.29v-16.46h8.48l1.16,7-3,.75a4.42,4.42,0,0,0,1.07,8.71h5.67a4.71,4.71,0,0,0,4.48,3.29h7.06a4.71,4.71,0,0,0,4.7-4.7,4.66,4.66,0,0,0-2.6-4.2l-.56-.28,1.32-10.57h8.42v16.46a3.3,3.3,0,0,0,3.3,3.29h3.29a3.3,3.3,0,0,0,3.29-3.29v-16.46h36.21v16.46a3.3,3.3,0,0,0,3.29,3.29h3.3a3.3,3.3,0,0,0,3.29-3.29Zm-95.46,95.46h-3.29v-95.46h3.29v95.46Zm21.56-75.71-1.32,13.17h-10.36V1762Zm4.47-11.69a1.65,1.65,0,0,1,1.64-1.48h.63a1.63,1.63,0,0,1,1.63,1.48l2.84,28.31a9.43,9.43,0,0,0-3.14,1.2V1768.6H2875v11.24a9.6,9.6,0,0,0-3.14-1.2Zm-7,81.79a4.7,4.7,0,0,0-2.21,2.32h-5.84a1.13,1.13,0,0,1-1.13-1.13,1.11,1.11,0,0,1,.85-1.09l6-1.49-1.58-9.46H2867l1.32,10.57Zm9.16,5.61h-7.06a1.41,1.41,0,0,1-1.41-1.41,1.38,1.38,0,0,1,.78-1.25l2.65-1.33-1.56-12.47h6.14l-1.55,12.47,2.64,1.33a1.4,1.4,0,0,1-.63,2.66Zm17.87,0h-3.29v-95.46h3.29Zm9.87-62.54V1762h23.05v13.17Zm36.22,62.54h-3.3v-95.46h3.3Z"/><rect class="cls-85" x="2423.53" y="1801.52" width="9.88" height="102.05"/><rect class="cls-85" x="2469.62" y="1801.52" width="9.88" height="102.05"/><rect class="cls-85" x="2515.7" y="1801.52" width="9.88" height="102.05"/><line class="cls-85" x1="2433.41" y1="1812.68" x2="2454.81" y2="1812.68"/><line class="cls-85" x1="2479.49" y1="1812.68" x2="2515.7" y2="1812.68"/><line class="cls-85" x1="2433.41" y1="1882.23" x2="2515.7" y2="1882.23"/><rect class="cls-85" x="2484.47" y="1823.08" width="26.27" height="16.06"/><polyline class="cls-85" points="2453.61 1823.08 2438.54 1823.08 2438.54 1839.14 2451.88 1839.14"/><path class="cls-85" d="M2458.4,1846.13c0-2.15,6.58-3.74,6.58-3.74l-3.29-29.71s-.69-3.44-3.44-3.44-3.44,3.44-3.44,3.44l-3.29,29.71s6.58,1.59,6.58,3.74"/><line class="cls-85" x1="2461.69" y1="1812.68" x2="2469.62" y2="1812.68"/><path class="cls-2" d="M2739.78,1759.27a29.39,29.39,0,0,0-29.4,29.39c0,32.07,29.4,58.5,29.4,58.5s29.39-26.43,29.39-58.5A29.39,29.39,0,0,0,2739.78,1759.27Zm0,47.67a18.28,18.28,0,1,1,18.27-18.28A18.27,18.27,0,0,1,2739.78,1806.94Z"/><path class="cls-2" d="M2781.34,1732.83a19.57,19.57,0,0,0-19.57,19.57c0,21.34,19.57,38.93,19.57,38.93s19.56-17.59,19.56-38.93A19.57,19.57,0,0,0,2781.34,1732.83Zm0,31.73a12.17,12.17,0,1,1,12.16-12.16A12.16,12.16,0,0,1,2781.34,1764.56Z"/><path class="cls-2" d="M2703,1740.88a14.18,14.18,0,0,0-14.19,14.18c0,15.47,14.19,28.23,14.19,28.23s14.18-12.76,14.18-28.23A14.18,14.18,0,0,0,2703,1740.88Zm0,23a8.82,8.82,0,1,1,8.82-8.82A8.82,8.82,0,0,1,2703,1763.88Z"/><path class="cls-2" d="M3366.84,1811.13l-.88,0,0-.08a5.87,5.87,0,0,0,.85.06Z"/><path class="cls-2" d="M3398.13,1745.34c-1.55,5-6.55,7.94-11.17,6.52s-7.12-6.66-5.57-11.68,6.55-7.94,11.18-6.51,7.1,6.65,5.56,11.67Z"/><path class="cls-2" d="M3358.18,1797.47a6.63,6.63,0,0,0-.38,1.14l-.08,0Z"/><path class="cls-2" d="M3415.1,1782.2a.61.61,0,0,0-.27,0l-20.29-.81h0l-.17-.05a1.28,1.28,0,0,1-.8-.72s0-.08-.05-.1l-6.7-16.87-3.1-7.79,0,0h0a7,7,0,0,0-4.49-3.9c-3.51-1.1-7.1.44-8,3.39l-11.62,30-4.93,12.19a6.63,6.63,0,0,0-.38,1.14,10,10,0,0,0,0,5.37,9.69,9.69,0,0,0,8.15,7.09,5.87,5.87,0,0,0,.85.06c.24,0,.5,0,.74,0l25.41-.52.11,0a3.59,3.59,0,0,1,3.73,2.17,3.53,3.53,0,0,1,.25,1.88,1.83,1.83,0,0,1,0,.21l-1.44,27.9v.63a3.08,3.08,0,0,0,.25,1.17c.73,1.73,3.71,2.55,5.42,1.82a3.31,3.31,0,0,0,1.94-2.36l.09-.84a.41.41,0,0,1,0-.11l3.58-35.3h0a3,3,0,0,0,.06-.67,4.47,4.47,0,0,0,0-.94c0-.18,0-.35-.08-.53a5.28,5.28,0,0,0-.38-1.31,6,6,0,0,0-3.29-3.23,1.83,1.83,0,0,0-.42-.13l-.19-.06-.3-.1a1.74,1.74,0,0,0-.3-.07s0,0,0,0l-25.3-4.3,8.83-23.17.18.37,5.66,11.83a3.88,3.88,0,0,0,2.64,2.84,3.65,3.65,0,0,0,1.38.16h0l23.12-1,.44,0a2.7,2.7,0,0,0,2.52-2.49,2.74,2.74,0,0,0-2.76-2.74Z"/><path class="cls-2" d="M3369.15,1846.69h-36.24c-2.47,0,5.15-6.86,4.93-10-.16-2.47-9.39-17.12-9.39-19.47a4.36,4.36,0,0,1,4.46-4.26h45a4.37,4.37,0,0,1,4.42,3.78.09.09,0,0,1,0,0,3.47,3.47,0,0,1,.2,1.24c0,7.63-8.84,12.67-18.83,13.06a.37.37,0,0,1-.15,0c-2.93.27,8,15.61,5.55,15.61Z"/><path class="cls-2" d="M3347.15,1776.49v1h-.44v29.58a2.62,2.62,0,0,1-2.64,2.6h-13a2.6,2.6,0,0,1-2.63-2.6v-29.58H3328v-1a2.75,2.75,0,0,1,2.81-2.68h13.52a2.75,2.75,0,0,1,2.81,2.68Z"/><path class="cls-2" d="M3426.19,1756.19l-1.31,5.56-2.63-.22-5.28,19.1,1.39,0h.18l4.84-17.53,16.13,1.31-9.37,31.3h-15.77l1.84-6.67-1.59.07-2.25,8.12h18.9l9.78-32.69.35-1.23Zm.22,5.68.83-3.51,9.16,4.32Z"/><path class="cls-2" d="M3723.68,1756.85c-2.78-6,.35-12.86,7-15.36s14.2.32,17,6.31-.37,12.86-7,15.35S3726.43,1762.83,3723.68,1756.85Z"/><path class="cls-2" d="M3799.58,1812.65a8.06,8.06,0,0,0,2.6-1.59,6.91,6.91,0,0,0,2.31-5.22,59.52,59.52,0,0,0-12.13-32.75c-9.72-12.38-27.31-18-28.05-18.23a19.48,19.48,0,0,0-6.82-.83c-4,.51-7.72,3-7.72,7.74v24l-23.48,2.23c-4,0-7.25.7-7.25,4.33s3.25,6.55,7.25,6.55h15.62c-3.5.79-3.78,3.64-3.78,7v40.73c0,4,2.67,7.28,7.12,7.28s6.11-3.25,6.11-7.28l1.16-33.45,10.5,0S3796.51,1813.91,3799.58,1812.65Zm-35.31-20.3v-15.21a39.7,39.7,0,0,1,4.35,5.8,52.82,52.82,0,0,1,5.15,11.58l-11.75,1.77a4.48,4.48,0,0,0,2.24-3.94Z"/><path class="cls-2" d="M3784.59,1854c-2.88,0,9.86-17.11,6.46-17.41l-.18,0c-11.61-.44-21.9-6.06-21.9-14.57a3.86,3.86,0,0,1,.23-1.39.06.06,0,0,1,0,0,5,5,0,0,1,5.14-4.22h52.37a5,5,0,0,1,5.19,4.76c0,2.62-10.73,19-10.93,21.71-.24,3.55,8.61,11.2,5.74,11.2Z"/><path class="cls-2" d="M3810.17,1775.66a3.15,3.15,0,0,1,3.27-3h15.72a3.15,3.15,0,0,1,3.27,3v1.1h-.52v33a3,3,0,0,1-3.06,2.89h-15.1a3,3,0,0,1-3.07-2.89v-33h-.52v-1.1Z"/><text class="cls-86" transform="translate(1471.08 1289.12)">S<tspan class="cls-7" x="28.8" y="0">P</tspan><tspan class="cls-8" x="55.38" y="0">O</tspan><tspan class="cls-9" x="87.81" y="0">T</tspan><tspan class="cls-10" x="108.42" y="0">A</tspan><tspan class="cls-11" x="144.39" y="0">L</tspan><tspan class="cls-12" x="165.19" y="0">O</tspan><tspan class="cls-13" x="199.46" y="0">O</tspan></text><path class="cls-87" d="M1704.58,1273s1.61,14.2-3.12,24.49c-2.8,6.1-7,12,1.51,24.49"/><path class="cls-2" d="M3006.09,2046.14a29.39,29.39,0,0,0-29.4,29.39c0,32.07,29.4,58.5,29.4,58.5s29.4-26.43,29.4-58.5A29.4,29.4,0,0,0,3006.09,2046.14Zm0,47.67a18.28,18.28,0,1,1,18.28-18.28A18.27,18.27,0,0,1,3006.09,2093.81Z"/></g></svg>