<svg id="Layer_1" data-name="Layer 1" xmlns="http://www.w3.org/2000/svg" viewBox="0 0 223.25 301.21"><defs><style>.cls-1{fill:#e7f159;}.cls-2,.cls-4{opacity:0.75;}.cls-3,.cls-4{fill:#fff;}.cls-5{fill:none;stroke:#1d1d1b;stroke-miterlimit:10;stroke-width:3px;}</style></defs><circle class="cls-1" cx="111.63" cy="150.25" r="111.63"/><g class="cls-2"><path class="cls-3" d="M111.62,169.51c-7.13,0-107.54-18.12-34.12-38.4.13,0,1.5-.43,3.33-.86,2.65,3.64,5.77,4.34,9.53.75,2.68-3.29-4.89-1.86-9.53-.75-9.45-12.93-12.94-63.2-17.66-91.11,9.37-7.06,21.36-18.7,31.18-28.49a24.39,24.39,0,0,1,34.56,0c9.82,9.79,21.8,21.43,31.18,28.49-4.72,27.91-8.22,78.18-17.66,91.11-4.64-1.11-12.21-2.54-9.54.75,3.76,3.59,6.88,2.89,9.54-.75,1.83.43,3.2.83,3.32.86C219.17,151.39,118.76,169.51,111.62,169.51Z"/><path class="cls-4" d="M63.17,39.14c-11.89,8.94-19.55,10.53-13.23-8.29C56.32,11.86,60,20.53,63.17,39.14Z"/><path class="cls-4" d="M90.36,131c-3.76,3.59-6.88,2.89-9.53-.75C85.47,129.14,93,127.71,90.36,131Z"/><path class="cls-4" d="M142.43,130.25c-2.66,3.64-5.78,4.34-9.54.75C130.22,127.71,137.79,129.14,142.43,130.25Z"/><path class="cls-4" d="M160.09,39.14c3.14-18.61,6.85-27.28,13.22-8.29C179.64,49.67,172,48.08,160.09,39.14Z"/><path class="cls-3" d="M111.63,298c26.21,0,40.92-51.46,40.92-29.92s-6.5,11.38-7.6,5.91c-.89-4.44-7-41.14-9.31-56.49-.61-4.13-.64-9.61,3.39-11.83,33.11-18.19,47-56,53.67-52.06,13.57,8-33.95,36.53-81.07,36.53S17,161.62,30.55,153.59c6.66-4,20.56,33.87,53.68,52.06,4,2.22,4,7.7,3.38,11.83-2.29,15.35-8.41,52-9.31,56.49-1.1,5.47-7.59,15.62-7.59-5.91S85.41,298,111.63,298Z"/></g><path class="cls-5" d="M111.63,299.71c26.14,0,43.07-53.8,43.07-31.29s-6.47,11.9-7.57,6.18c-.9-4.64-7-43-9.29-59.06-.61-4.32-.64-10,3.38-12.36,33-19,44.63-53.66,51.27-49.54,13.53,8.4-33.86,34.52-80.86,34.52S17.23,162,30.77,153.64C37.41,149.52,49,184.16,82,203.18c4,2.31,4,8,3.38,12.36C83.13,231.59,77,270,76.13,274.6c-1.1,5.72-7.58,16.33-7.58-6.18S85.48,299.71,111.63,299.71Z"/><path class="cls-5" d="M111.63,168.12c7.3,0,117.15-14.78,35.4-39.44-.47-.15-.95-.31-1.41-.48-11.06-4.12-16.27-3-13.4.5,29.73,36.62,24.1-155.27,43.43-98.3,12,35.25-24.34.79-47.41-22.07A23.61,23.61,0,0,0,95,8.33C72,31.19,35.64,65.65,47.6,30.4c19.34-57,13.7,134.92,43.44,98.3,2.86-3.54-2.35-4.62-13.4-.5-.47.17-1,.33-1.42.48C-5.52,153.34,104.32,168.12,111.63,168.12Z"/></svg>